<?xml version="1.0" standalone="no"?>
<!DOCTYPE svg PUBLIC "-//W3C//DTD SVG 1.1//EN" "http://www.w3.org/Graphics/SVG/1.1/DTD/svg11.dtd" >
<svg xmlns="http://www.w3.org/2000/svg">
    <defs>
        <font id="">
            <font-face font-family=""
                       units-per-em="256"
                       ascent="229"
                       descent="-67"
                       bbox="-14 -67 266 229"
                    />
            <missing-glyph horiz-adv-x="0" />
            
            <glyph glyph-name="&quot;" unicode="&#x22;" horiz-adv-x="72" d=" M33,192 L13,192 L17,121 L29,121 M72,192 L53,192 L57,121 L69,121"/> 
            <glyph glyph-name="%" unicode="&#x25;" horiz-adv-x="232" d=" M63,-15 L77,-15 L187,194 L173,194 M59,100 Q89,101 90,142 Q90,182 60,183 Q30,182 29,141 Q31,103 59,100 M60,195 Q100,193 102,141 Q101,90 58,89 Q19,92 17,141 Q19,193 60,195 M190,-4 Q219,-3 220,36 Q219,77 190,78 Q159,77 159,35 Q160,-2 190,-4 M190,89 Q230,87 232,35 Q231,-14 189,-15 Q149,-12 147,35 Q149,87 190,89"/> 
            <glyph glyph-name="+" unicode="&#x2B;" horiz-adv-x="151" d=" M151,82 L151,96 L91,96 L91,156 L78,156 L78,96 L17,96 L17,82 L78,82 L78,22 L91,22 L91,82"/> 
            <glyph glyph-name="." unicode="&#x2E;" horiz-adv-x="49" d=" M49,-8 L49,16 L25,16 L25,-8"/> 
            <glyph glyph-name="/" unicode="&#x2F;" horiz-adv-x="76" d=" M0,-12 L12,-12 L76,194 L63,194"/> 
            <glyph glyph-name="0" unicode="&#x30;" horiz-adv-x="144" d=" M78,0 Q129,-1 128,89 Q129,181 77,180 Q29,178 28,89 Q28,0 78,0 M78,193 Q144,193 144,89 Q143,-10 79,-12 Q13,-10 12,89 Q14,190 78,193"/> 
            <glyph glyph-name="1" unicode="&#x31;" horiz-adv-x="105" d=" M90,-9 L105,-9 L105,193 L94,193 Q82,160 31,135 L31,121 Q77,142 90,164"/> 
            <glyph glyph-name="2" unicode="&#x32;" horiz-adv-x="144" d=" M140,-9 L140,2 L27,2 Q44,36 87,67 Q144,107 139,140 Q136,191 80,193 Q30,194 13,146 L27,138 Q38,179 75,180 Q122,179 123,137 Q127,112 75,75 Q30,44 9,0 L9,-9"/> 
            <glyph glyph-name="3" unicode="&#x33;" horiz-adv-x="143" d=" M99,95 L99,96 Q133,106 135,141 Q133,192 76,193 Q25,193 14,143 L29,138 Q35,181 77,180 Q119,180 119,141 Q118,100 67,100 L56,100 L56,88 L74,88 Q126,88 127,48 Q126,1 75,0 Q32,0 25,44 L10,40 Q21,-11 77,-12 Q140,-9 143,46 Q141,87 99,95"/> 
            <glyph glyph-name="4" unicode="&#x34;" horiz-adv-x="144" d=" M21,52 L102,52 L102,171 Q102,168 98,162 M144,39 L116,39 L116,-10 L102,-10 L102,39 L4,39 L4,48 L105,193 L116,193 L116,52 L144,52"/> 
            <glyph glyph-name="5" unicode="&#x35;" horiz-adv-x="144" d=" M35,102 L43,176 L134,176 L134,189 L31,189 L19,85 L29,83 Q45,110 78,110 Q127,108 129,56 Q127,2 77,0 Q32,0 25,45 L11,41 Q23,-12 79,-12 Q142,-9 144,58 Q140,120 82,123 Q52,123 35,102"/> 
            <glyph glyph-name="6" unicode="&#x36;" horiz-adv-x="144" d=" M26,61 Q28,2 79,0 Q127,1 129,54 Q127,106 81,108 Q30,105 26,61 M140,148 L126,143 Q117,181 82,180 Q25,180 25,87 Q43,121 84,121 Q140,117 144,55 Q140,-8 81,-12 Q10,-13 11,82 Q11,193 83,193 Q127,191 140,148"/> 
            <glyph glyph-name="7" unicode="&#x37;" horiz-adv-x="143" d=" M143,180 L143,189 L13,189 L13,176 L125,176 Q59,76 47,-10 L63,-10 Q74,80 143,180"/> 
            <glyph glyph-name="8" unicode="&#x38;" horiz-adv-x="147" d=" M79,89 Q30,88 28,43 Q30,0 80,0 Q130,1 132,41 Q129,87 79,89 M79,181 Q38,179 36,140 Q37,100 80,99 Q121,101 123,140 Q121,179 79,181 M52,94 Q22,108 20,139 Q24,189 79,193 Q133,189 139,139 Q137,106 108,94 Q144,82 147,41 Q145,-10 80,-12 Q14,-10 12,43 Q16,84 52,94"/> 
            <glyph glyph-name="9" unicode="&#x39;" horiz-adv-x="145" d=" M130,117 Q128,178 77,180 Q28,179 27,125 Q29,72 74,70 Q125,73 130,117 M16,31 L29,36 Q40,-1 74,0 Q131,0 131,92 Q113,58 71,58 Q16,62 12,124 Q16,189 75,193 Q145,194 145,96 Q145,-12 72,-12 Q28,-10 16,31"/> 
            <glyph glyph-name="&gt;" unicode="&#x3E;" horiz-adv-x="151" d=" M15,162 L139,90 L15,16 L15,0 L151,83 L151,97 L15,179"/> 
            <glyph glyph-name="?" unicode="&#x3F;" horiz-adv-x="144" d=" M83,-8 L83,12 L65,12 L65,-8 M81,51 L81,42 L67,42 L67,52 Q67,81 94,98 Q127,121 125,143 Q122,179 82,182 Q38,183 28,137 L12,142 Q25,196 84,194 Q137,191 141,143 Q144,113 103,88 Q80,75 81,51"/> 
            <glyph glyph-name="A" unicode="&#x41;" horiz-adv-x="188" d=" M49,68 L138,68 L94,174 L93,174 M171,-9 L144,55 L44,55 L16,-9 L0,-9 L85,191 L101,191 L188,-9"/> 
            <glyph glyph-name="B" unicode="&#x42;" horiz-adv-x="171" d=" M97,88 L35,88 L35,3 L101,3 Q155,3 155,48 Q152,87 97,88 M94,177 L35,177 L35,101 L94,101 Q145,101 146,142 Q145,176 94,177 M104,-9 L21,-9 L21,190 L99,190 Q158,187 162,142 Q161,102 119,95 Q169,86 171,45 Q170,-8 104,-9"/> 
            <glyph glyph-name="C" unicode="&#x43;" horiz-adv-x="191" d=" M174,58 L191,53 Q175,-11 104,-12 Q18,-6 14,88 Q19,188 107,193 Q165,191 187,135 L170,131 Q153,177 105,179 Q35,173 30,90 Q34,6 103,0 Q161,0 174,58"/> 
            <glyph glyph-name="D" unicode="&#x44;" horiz-adv-x="189" d=" M93,177 L37,177 L37,2 L92,2 Q172,2 172,90 Q170,174 93,177 M92,-9 L21,-9 L21,190 L94,190 Q184,187 187,90 Q189,-11 92,-9"/> 
            <glyph glyph-name="E" unicode="&#x45;" horiz-adv-x="171" d=" M38,2 L171,2 L171,-9 L23,-9 L23,190 L166,190 L166,177 L38,177 L38,100 L159,100 L159,87 L38,87"/> 
            <glyph glyph-name="F" unicode="&#x46;" horiz-adv-x="158" d=" M158,177 L38,177 L38,100 L143,100 L143,87 L38,87 L38,-9 L22,-9 L22,190 L158,190"/> 
            <glyph glyph-name="G" unicode="&#x47;" horiz-adv-x="199" d=" M114,94 L199,94 L199,21 Q176,-11 114,-12 Q19,-7 15,89 Q19,188 110,193 Q178,192 199,135 L182,130 Q167,179 109,179 Q35,174 31,89 Q35,6 112,0 Q165,1 184,27 L184,81 L114,81"/> 
            <glyph glyph-name="H" unicode="&#x48;" horiz-adv-x="179" d=" M164,190 L179,190 L179,-9 L164,-9 L164,87 L38,87 L38,-9 L23,-9 L23,190 L38,190 L38,100 L164,100"/> 
            <glyph glyph-name="I" unicode="&#x49;" horiz-adv-x="40" d=" M25,-9 L40,-9 L40,190 L25,190"/> 
            <glyph glyph-name="L" unicode="&#x4C;" horiz-adv-x="146" d=" M146,-10 L146,2 L35,2 L35,190 L20,190 L20,-10"/> 
            <glyph glyph-name="M" unicode="&#x4D;" horiz-adv-x="214" d=" M188,190 L214,190 L214,-10 L199,-10 L199,178 L197,178 L124,-9 L111,-9 L38,178 L36,178 L36,-10 L22,-10 L22,190 L47,190 L117,7 L118,7"/> 
            <glyph glyph-name="N" unicode="&#x4E;" horiz-adv-x="180" d=" M39,179 L156,-10 L180,-10 L180,190 L165,190 L165,0 L164,0 L46,190 L22,190 L22,-10 L38,-10 L38,179"/> 
            <glyph glyph-name="P" unicode="&#x50;" horiz-adv-x="175" d=" M102,177 L37,177 L37,85 L102,85 Q158,85 158,133 Q155,175 102,177 M106,71 L37,71 L37,-9 L22,-9 L22,190 L108,190 Q169,186 175,132 Q173,73 106,71"/> 
            <glyph glyph-name="Q" unicode="&#x51;" horiz-adv-x="204" d=" M106,1 Q185,4 187,90 Q182,173 108,180 Q32,174 27,90 Q31,6 106,1 M130,-8 L176,-54 L159,-60 L113,-11 Q110,-11 106,-11 Q15,-6 11,89 Q15,189 109,193 Q198,186 204,90 Q202,8 130,-8"/> 
            <glyph glyph-name="R" unicode="&#x52;" horiz-adv-x="198" d=" M38,177 L38,94 L110,94 Q167,93 166,136 Q166,177 110,177 M198,-9 L177,-9 L103,81 L38,81 L38,-9 L23,-9 L23,190 L115,190 Q179,188 182,135 Q182,84 121,81"/> 
            <glyph glyph-name="S" unicode="&#x53;" horiz-adv-x="175" d=" M150,135 L167,140 Q156,192 91,193 Q23,191 20,140 Q18,98 92,87 Q159,78 156,44 Q152,2 97,0 Q37,0 29,54 L12,48 Q26,-14 98,-12 Q167,-9 172,42 Q175,90 97,100 Q34,110 36,140 Q41,177 92,179 Q142,178 150,135"/> 
            <glyph glyph-name="T" unicode="&#x54;" horiz-adv-x="166" d=" M166,177 L94,177 L94,-9 L79,-9 L79,177 L7,177 L7,190 L166,190"/> 
            <glyph glyph-name="U" unicode="&#x55;" horiz-adv-x="182" d=" M166,190 L166,74 Q167,0 101,0 Q37,0 38,74 L38,190 L23,190 L23,74 Q22,-13 101,-12 Q182,-13 181,74 L181,190"/> 
            <glyph glyph-name="a" unicode="&#x61;" horiz-adv-x="145" d=" M123,49 L123,78 Q116,66 74,61 Q23,57 26,27 Q24,-1 65,0 Q119,2 123,49 M30,93 L16,98 Q25,141 80,140 Q140,142 137,88 L137,23 Q136,2 145,-8 L130,-8 Q122,1 122,19 Q106,-11 58,-12 Q13,-11 12,27 Q12,67 65,73 Q115,77 122,89 Q125,130 80,128 Q36,129 30,93"/> 
            <glyph glyph-name="c" unicode="&#x63;" horiz-adv-x="137" d=" M120,92 L135,96 Q122,138 75,140 Q14,137 11,63 Q12,-10 76,-12 Q128,-13 137,37 L122,41 Q117,1 77,0 Q28,2 27,63 Q28,126 77,127 Q110,125 120,92"/> 
            <glyph glyph-name="d" unicode="&#x64;" horiz-adv-x="135" d=" M121,55 L121,78 Q116,120 73,128 Q26,126 24,62 Q24,0 73,0 Q119,1 121,55 M135,-9 L121,-9 L121,19 Q106,-12 67,-12 Q12,-9 10,62 Q12,137 70,140 Q105,139 121,108 L121,191 L135,191"/> 
            <glyph glyph-name="e" unicode="&#x65;" horiz-adv-x="145" d=" M27,70 L129,70 Q128,126 79,127 Q30,124 27,70 M129,35 L144,31 Q132,-12 80,-12 Q12,-9 10,62 Q13,136 79,140 Q143,138 145,61 Q145,59 145,58 L26,58 Q28,2 79,0 Q121,0 129,35"/> 
            <glyph glyph-name="g" unicode="&#x67;" horiz-adv-x="141" d=" M124,59 L124,81 Q120,124 76,128 Q26,126 24,66 Q25,6 74,5 Q123,6 124,59 M138,137 L138,10 Q141,-62 70,-59 Q34,-58 15,-37 L23,-29 Q40,-46 70,-47 Q126,-48 124,3 L124,23 Q112,-4 70,-4 Q10,-2 9,66 Q12,136 72,140 Q108,139 124,112 L124,137"/> 
            <glyph glyph-name="h" unicode="&#x68;" horiz-adv-x="137" d=" M136,84 L136,-9 L122,-9 L122,82 Q123,129 82,128 Q36,126 33,74 L33,-9 L18,-9 L18,190 L33,190 L33,107 Q48,138 85,140 Q137,141 136,84"/> 
            <glyph glyph-name="i" unicode="&#x69;" horiz-adv-x="33" d=" M18,-9 L33,-9 L33,137 L18,137 M18,169 L33,169 L33,191 L18,191"/> 
            <glyph glyph-name="k" unicode="&#x6B;" horiz-adv-x="139" d=" M121,-9 L64,72 L33,43 L33,-9 L18,-9 L18,190 L33,190 L33,59 L113,137 L133,137 L73,81 L139,-9"/> 
            <glyph glyph-name="n" unicode="&#x6E;" horiz-adv-x="138" d=" M137,84 L137,-9 L123,-9 L123,82 Q124,129 82,128 Q40,125 33,81 L33,-9 L19,-9 L19,136 L33,136 L33,106 Q50,139 86,140 Q138,141 137,84"/> 
            <glyph glyph-name="o" unicode="&#x6F;" horiz-adv-x="145" d=" M78,127 Q26,125 25,61 Q27,2 78,-1 Q128,0 130,62 Q127,123 78,127 M77,-12 Q12,-8 9,61 Q12,138 80,140 Q142,137 145,63 Q144,-11 77,-12"/> 
            <glyph glyph-name="r" unicode="&#x72;" horiz-adv-x="98" d=" M91,118 L98,132 Q86,141 71,140 Q43,138 33,109 L32,109 L32,136 L18,136 L18,-9 L32,-9 L32,70 Q34,122 69,125 Q83,125 91,118"/> 
            <glyph glyph-name="t" unicode="&#x74;" horiz-adv-x="74" d=" M72,0 L74,-6 Q67,-12 53,-12 Q25,-13 26,18 L26,124 L3,124 L3,136 L26,136 L26,179 L41,187 L41,136 L71,136 L71,124 L41,124 L41,18 Q40,-3 58,-1 Q66,-1 72,0"/> 
            <glyph glyph-name="u" unicode="&#x75;" horiz-adv-x="136" d=" M122,136 L136,136 L136,-9 L122,-9 L122,19 Q106,-10 70,-12 Q17,-13 18,42 L18,137 L32,137 L32,44 Q31,-1 73,0 Q117,2 122,48"/> 
            <glyph glyph-name="z" unicode="&#x7A;" horiz-adv-x="134" d=" M134,-8 L134,2 L26,2 L130,129 L130,137 L12,137 L12,124 L109,124 L5,0 L5,-8"/> 
            <glyph glyph-name="|" unicode="&#x7C;" horiz-adv-x="38" d=" M26,-63 L38,-63 L38,194 L26,194"/> 
            <glyph glyph-name="、" unicode="&#x3001;" horiz-adv-x="99" d=" M39,37 L49,46 L99,-10 L88,-19"/> 
            <glyph glyph-name="。" unicode="&#x3002;" horiz-adv-x="112" d=" M53,13 Q55,-8 78,-10 Q100,-8 102,13 Q100,35 78,37 Q55,35 53,13 M44,13 Q47,44 78,47 Q109,44 112,13 Q109,-16 78,-19 Q47,-16 44,13"/> 
            <glyph glyph-name="一" unicode="&#x4E00;" horiz-adv-x="249" d=" M7,104 L249,104 L249,89 L7,89"/> 
            <glyph glyph-name="万" unicode="&#x4E07;" horiz-adv-x="246" d=" M12,189 L246,189 L246,175 L103,175 Q102,145 99,118 L216,118 Q215,85 210,24 Q207,-22 164,-22 Q141,-22 120,-22 Q119,-12 117,-6 Q137,-7 162,-7 Q194,-9 196,25 Q200,61 200,104 L98,104 Q91,19 20,-29 Q19,-28 18,-27 Q12,-22 9,-18 Q82,29 84,114 Q87,140 88,175 L12,175"/> 
            <glyph glyph-name="上" unicode="&#x4E0A;" horiz-adv-x="247" d=" M109,206 L123,206 L123,130 L227,130 L227,116 L123,116 L123,0 L247,0 L247,-14 L9,-14 L9,0 L109,0"/> 
            <glyph glyph-name="下" unicode="&#x4E0B;" horiz-adv-x="247" d=" M9,190 L247,190 L247,176 L124,176 L124,-27 L109,-27 L109,176 L9,176 M221,57 Q174,86 129,110 L137,123 Q144,119 157,112 Q206,87 231,72"/> 
            <glyph glyph-name="不" unicode="&#x4E0D;" horiz-adv-x="247" d=" M14,189 L245,189 L245,175 L153,175 Q102,94 17,37 Q11,43 7,49 Q95,107 135,175 L14,175 M120,126 L134,126 L134,-30 L120,-30 M238,44 Q176,87 153,100 L162,111 Q168,107 180,99 Q228,69 247,56"/> 
            <glyph glyph-name="与" unicode="&#x4E0E;" horiz-adv-x="248" d=" M47,97 L59,210 L73,210 L69,170 L248,170 L248,157 L68,157 L63,111 L230,111 Q226,44 223,15 Q221,-24 172,-24 Q140,-24 119,-24 Q119,-21 118,-16 Q117,-11 116,-8 Q139,-10 170,-10 Q206,-11 209,17 Q210,25 211,42 Q214,79 215,97 M7,53 L186,53 L186,40 L7,40"/> 
            <glyph glyph-name="专" unicode="&#x4E13;" horiz-adv-x="249" d=" M56,62 L56,76 Q64,89 72,111 L9,111 L9,124 L78,124 Q81,132 88,150 Q91,159 93,163 L24,163 L24,176 L98,176 Q104,189 110,211 L124,208 Q119,193 113,176 L233,176 L233,163 L108,163 Q106,159 103,150 Q96,132 93,124 L249,124 L249,111 L87,111 Q79,90 71,75 L219,75 L219,60 L151,0 Q158,-2 171,-9 Q184,-15 190,-18 L182,-30 Q114,3 54,30 L61,41 Q64,40 71,37 Q113,18 138,5 L201,62"/> 
            <glyph glyph-name="世" unicode="&#x4E16;" horiz-adv-x="246" d=" M9,145 L42,145 L42,196 L56,196 L56,145 L110,145 L110,207 L124,207 L124,145 L196,145 L196,207 L210,207 L210,145 L246,145 L246,132 L210,132 L210,42 L110,42 L110,132 L56,132 L56,-6 L240,-6 L240,-19 L42,-19 L42,132 L9,132 M124,132 L124,55 L196,55 L196,132"/> 
            <glyph glyph-name="业" unicode="&#x4E1A;" horiz-adv-x="249" d=" M153,206 L166,206 L166,0 L249,0 L249,-13 L7,-13 L7,0 L89,0 L89,206 L102,206 L102,0 L153,0 M196,53 L183,59 Q199,89 225,156 L238,151 Q219,102 196,53 M56,54 Q39,103 19,151 L32,156 Q41,133 61,82 Q67,65 70,58"/> 
            <glyph glyph-name="丢" unicode="&#x4E22;" horiz-adv-x="247" d=" M221,-30 Q213,-19 202,-10 Q159,-11 77,-14 Q62,-15 55,-15 Q44,-15 36,-17 L28,-2 Q41,1 49,8 Q76,31 103,60 L9,60 L9,73 L121,73 L121,120 L26,120 L26,133 L121,133 L121,180 Q76,179 29,177 Q28,184 26,190 Q119,191 226,198 L228,185 Q214,185 185,183 Q152,182 135,181 L135,133 L230,133 L230,120 L135,120 L135,73 L247,73 L247,60 L122,60 Q92,26 56,-2 Q95,-1 191,0 Q172,20 155,35 L166,43 Q207,6 233,-21"/> 
            <glyph glyph-name="个" unicode="&#x4E2A;" horiz-adv-x="248" d=" M238,93 Q166,131 130,185 Q88,126 17,88 Q10,97 7,100 Q91,145 129,209 L143,206 L137,196 Q178,139 248,105 Q247,103 243,99 Q239,95 238,93 M121,119 L135,119 L135,-29 L121,-29"/> 
            <glyph glyph-name="中" unicode="&#x4E2D;" horiz-adv-x="233" d=" M23,156 L121,156 L121,211 L135,211 L135,156 L233,156 L233,47 L219,47 L219,61 L135,61 L135,-31 L121,-31 L121,61 L37,61 L37,47 L23,47 M219,143 L135,143 L135,74 L219,74 M37,143 L37,74 L121,74 L121,143"/> 
            <glyph glyph-name="为" unicode="&#x4E3A;" horiz-adv-x="233" d=" M116,210 L130,210 Q130,174 126,144 L233,144 Q233,97 229,25 Q228,-24 182,-23 Q150,-24 138,-24 Q137,-15 134,-7 Q138,-7 152,-7 Q172,-8 180,-8 Q215,-11 215,25 Q217,50 219,124 Q219,121 219,130 L125,130 Q116,25 24,-31 Q23,-29 19,-25 Q15,-20 13,-18 Q105,36 111,130 L17,130 L17,144 L112,144 Q116,174 116,210 M136,83 L147,91 Q156,83 175,64 Q183,55 187,51 L175,41 Q156,64 136,83 M36,196 L47,205 Q48,204 50,202 Q66,188 84,170 L73,159 Q55,178 36,196"/> 
            <glyph glyph-name="主" unicode="&#x4E3B;" horiz-adv-x="247" d=" M19,164 L236,164 L236,151 L135,151 L135,85 L227,85 L227,72 L135,72 L135,-1 L247,-1 L247,-14 L8,-14 L8,-1 L121,-1 L121,72 L29,72 L29,85 L121,85 L121,151 L19,151 M113,205 L126,210 Q141,180 144,173 L130,168 Q127,177 113,205"/> 
            <glyph glyph-name="么" unicode="&#x4E48;" horiz-adv-x="241" d=" M60,0 Q95,1 160,5 Q191,6 205,7 Q201,12 193,22 Q171,52 158,68 L170,76 Q188,53 226,4 Q236,-8 241,-15 L228,-25 Q225,-21 220,-12 Q217,-7 215,-5 Q171,-7 98,-11 Q77,-12 67,-13 Q50,-14 38,-17 L30,-1 Q45,4 58,18 Q124,83 176,161 L190,153 Q128,67 60,0 M17,68 Q16,70 12,74 Q9,78 7,80 Q75,133 120,209 L134,202 Q82,119 17,68"/> 
            <glyph glyph-name="之" unicode="&#x4E4B;" horiz-adv-x="249" d=" M24,163 L224,163 L224,148 Q154,75 67,23 Q67,22 68,22 Q90,-2 137,-3 Q187,-6 249,-3 Q248,-7 245,-15 Q244,-17 244,-18 Q198,-18 178,-18 Q154,-18 136,-17 Q80,-16 54,15 Q50,19 43,15 Q41,13 38,10 Q21,-5 13,-16 L5,-3 Q19,11 29,21 Q41,32 48,32 Q49,32 51,32 Q53,31 54,31 Q146,88 206,150 L24,150 M110,203 L123,209 Q125,206 128,201 Q141,181 146,172 L132,165 Q124,181 110,203"/> 
            <glyph glyph-name="也" unicode="&#x4E5F;" horiz-adv-x="250" d=" M7,112 L43,121 L43,181 L57,181 L57,125 L122,141 L122,209 L136,209 L136,145 L224,166 Q224,164 224,161 Q222,109 220,86 Q219,48 185,49 Q171,49 159,49 Q158,53 157,59 Q156,62 156,64 Q160,64 169,64 Q178,63 183,63 Q206,62 206,87 Q209,114 209,150 L136,131 L136,24 L122,24 L122,127 L57,111 L57,17 Q56,-7 83,-6 L197,-6 Q227,-7 230,13 Q233,28 234,48 Q242,45 250,43 Q248,25 243,6 Q238,-21 200,-20 L79,-20 Q42,-21 43,13 L43,108 L9,99"/> 
            <glyph glyph-name="了" unicode="&#x4E86;" horiz-adv-x="233" d=" M126,119 L214,176 L16,176 L16,190 L233,190 L233,173 L141,111 L141,16 Q142,-24 101,-23 Q82,-23 62,-23 Q61,-14 59,-6 Q72,-7 99,-7 Q128,-8 126,16"/> 
            <glyph glyph-name="享" unicode="&#x4EAB;" horiz-adv-x="248" d=" M44,148 L210,148 L210,101 L44,101 M123,48 L184,67 L29,67 L29,79 L213,79 L213,66 L137,39 L137,33 L248,33 L248,21 L137,21 L137,0 Q138,-28 108,-28 Q92,-28 76,-28 Q75,-20 73,-14 Q83,-15 104,-15 Q125,-16 123,0 L123,21 L7,21 L7,33 L123,33 M10,180 L125,180 Q121,194 115,207 L129,211 Q130,207 133,198 Q137,186 139,180 L246,180 L246,168 L10,168 M57,136 L57,113 L197,113 L197,136"/> 
            <glyph glyph-name="亮" unicode="&#x4EAE;" horiz-adv-x="249" d=" M51,152 L203,152 L203,105 L51,105 M172,49 L172,3 Q172,-10 188,-10 L214,-10 Q231,-11 233,3 Q235,13 236,29 Q238,29 243,27 Q247,26 249,25 Q248,10 245,0 Q241,-23 216,-22 L185,-22 Q158,-23 159,2 L159,37 L86,37 L86,33 Q92,-19 16,-30 Q15,-25 10,-17 Q80,-9 73,33 L73,49 M17,83 L239,83 L239,48 L226,48 L226,71 L30,71 L30,48 L17,48 M13,186 L123,186 Q122,190 120,197 Q117,205 116,208 L130,211 Q131,207 134,199 Q136,190 137,186 L243,186 L243,174 L13,174 M64,141 L64,117 L190,117 L190,141"/> 
            <glyph glyph-name="人" unicode="&#x4EBA;" horiz-adv-x="247" d=" M237,-23 Q141,25 129,134 Q115,27 19,-26 Q18,-25 15,-22 Q11,-16 9,-15 Q104,38 118,144 Q121,164 121,206 L136,206 Q136,199 135,187 Q135,174 134,168 Q150,29 247,-11 Q245,-13 241,-18 Q238,-22 237,-23"/> 
            <glyph glyph-name="亿" unicode="&#x4EBF;" horiz-adv-x="249" d=" M231,19 Q233,31 236,62 Q240,60 249,57 Q248,39 245,13 Q240,-18 200,-18 Q163,-20 128,-18 Q89,-16 88,10 Q88,26 105,50 Q142,99 212,176 L101,176 L101,189 L228,189 L228,173 Q153,91 121,48 Q103,23 103,11 Q102,-4 135,-5 Q176,-5 196,-4 Q231,-5 231,19 M14,71 Q13,73 9,80 Q7,84 6,86 Q46,138 67,208 L81,205 Q78,198 73,183 Q64,160 59,149 L59,-28 L45,-28 L45,121 Q32,96 14,71"/> 
            <glyph glyph-name="什" unicode="&#x4EC0;" horiz-adv-x="250" d=" M87,117 L162,117 L162,207 L176,207 L176,117 L250,117 L250,103 L176,103 L176,-29 L162,-29 L162,103 L87,103 M14,72 Q13,74 10,78 Q6,83 5,84 Q51,139 74,207 L89,203 Q76,169 61,142 L61,-29 L47,-29 L47,118 Q32,91 14,72"/> 
            <glyph glyph-name="仅" unicode="&#x4EC5;" horiz-adv-x="250" d=" M87,179 L87,191 L232,191 L232,178 Q213,90 172,42 Q200,11 250,-13 Q248,-15 242,-23 Q241,-26 240,-27 Q185,5 162,31 Q134,1 79,-29 Q78,-28 75,-24 Q70,-17 69,-16 Q122,11 153,42 Q116,87 100,179 M218,179 L114,179 Q128,96 163,53 Q201,96 218,179 M12,79 Q11,81 9,87 Q6,92 5,94 Q43,143 65,209 L79,205 Q67,175 54,148 L54,-29 L40,-29 L40,122 Q27,98 12,79"/> 
            <glyph glyph-name="今" unicode="&#x4ECA;" horiz-adv-x="249" d=" M240,98 Q172,131 128,190 Q89,139 14,94 Q9,102 4,107 Q84,148 126,212 L142,209 Q139,206 136,201 Q179,143 249,111 Q245,105 240,98 M35,59 L35,72 L210,72 L210,58 L142,-29 Q136,-24 130,-21 L193,59 M106,131 L118,138 Q136,114 148,96 L135,89 Q115,119 106,131"/> 
            <glyph glyph-name="代" unicode="&#x4EE3;" horiz-adv-x="249" d=" M77,123 L136,129 Q135,163 133,209 L147,209 Q147,200 148,183 Q148,147 150,131 L243,141 L245,128 L151,118 Q156,54 175,18 Q190,-13 211,-13 Q224,-14 230,3 Q231,6 232,11 Q235,27 236,35 Q237,34 240,33 Q243,32 249,30 Q247,11 243,0 Q235,-27 212,-27 Q182,-27 162,11 Q144,47 137,116 L79,110 M11,77 Q10,79 8,84 Q6,89 5,91 Q43,140 66,208 L79,204 Q69,176 56,150 L56,-30 L42,-30 L42,124 Q28,98 11,77 M175,188 L184,197 Q212,174 227,161 L217,151 Q203,164 175,188"/> 
            <glyph glyph-name="们" unicode="&#x4EEC;" horiz-adv-x="237" d=" M236,7 Q237,-26 204,-26 Q184,-26 168,-26 Q167,-19 165,-11 Q181,-12 199,-12 Q225,-13 223,8 L223,174 L157,174 L157,188 L236,188 M12,74 Q11,77 9,82 Q8,86 6,90 Q45,149 61,207 L75,202 Q65,174 53,148 L53,-29 L40,-29 L40,121 Q28,98 12,74 M96,-26 L96,151 L109,151 L109,-26 M99,199 L110,206 Q115,200 127,186 Q137,175 141,170 L129,162 Q127,164 123,170 Q117,178 99,199"/> 
            <glyph glyph-name="件" unicode="&#x4EF6;" horiz-adv-x="250" d=" M168,209 L182,209 L182,151 L241,151 L241,138 L182,138 L182,70 L250,70 L250,57 L182,57 L182,-29 L168,-29 L168,57 L77,57 L77,70 L168,70 L168,138 L115,138 Q110,123 97,98 Q95,94 94,92 Q92,93 88,96 Q83,98 81,99 Q106,142 116,190 L130,187 Q125,169 119,151 L168,151 M13,71 Q9,80 6,87 Q40,137 61,207 L75,204 Q66,176 55,150 L55,-29 L42,-29 L42,121 Q27,92 13,71"/> 
            <glyph glyph-name="仿" unicode="&#x4EFF;" horiz-adv-x="248" d=" M150,205 L163,210 Q164,207 167,200 Q176,179 179,171 L167,167 L248,167 L248,154 L137,154 L136,109 L231,109 Q230,56 227,19 Q227,-24 187,-22 Q173,-23 158,-23 Q157,-16 154,-8 Q165,-9 186,-9 Q212,-10 213,18 Q216,52 217,97 L135,97 Q136,17 81,-29 Q80,-28 76,-25 Q71,-21 69,-19 Q102,12 111,35 Q121,58 122,108 L124,154 L81,154 L81,167 L165,167 Q163,173 156,190 Q152,200 150,205 M14,73 Q14,75 11,80 Q8,86 7,88 Q42,136 64,207 L78,202 Q68,175 57,149 L57,-29 L43,-29 L43,121 Q30,96 14,73"/> 
            <glyph glyph-name="众" unicode="&#x4F17;" horiz-adv-x="249" d=" M240,112 Q162,144 129,189 Q90,140 17,106 Q15,111 10,118 Q9,119 8,120 Q92,156 128,212 L143,209 Q140,203 136,199 Q175,153 249,125 Q245,120 240,112 M165,120 L179,120 Q178,111 178,104 Q185,27 249,-14 Q242,-21 239,-26 Q181,16 173,69 Q164,11 104,-30 Q99,-24 93,-18 Q168,25 165,120 M73,120 L88,120 Q87,112 86,98 Q84,89 84,85 Q100,69 129,38 Q128,39 132,35 L121,25 Q100,49 116,31 Q100,49 81,70 Q71,12 17,-26 Q14,-21 7,-15 Q74,28 73,120"/> 
            <glyph glyph-name="会" unicode="&#x4F1A;" horiz-adv-x="249" d=" M213,-29 Q210,-26 204,-20 Q199,-14 197,-12 Q116,-14 66,-18 Q64,-18 59,-19 Q49,-20 45,-21 L36,-6 Q44,-2 54,4 Q80,27 103,56 L16,56 L16,70 L240,70 L240,56 L122,56 Q95,24 62,-5 Q125,-2 184,0 Q181,2 175,8 Q170,12 155,28 L166,36 Q206,-1 225,-20 M239,110 Q165,142 130,191 Q86,141 16,105 Q12,112 6,118 Q86,155 129,212 L145,209 Q142,205 138,201 Q174,154 249,122 Q245,119 239,110 M61,121 L194,121 L194,108 L61,108"/> 
            <glyph glyph-name="住" unicode="&#x4F4F;" horiz-adv-x="249" d=" M95,87 L158,87 L158,153 L88,153 L88,166 L241,166 L241,153 L172,153 L172,87 L234,87 L234,74 L172,74 L172,-2 L249,-2 L249,-15 L81,-15 L81,-2 L158,-2 L158,74 L95,74 M13,73 Q11,81 6,88 Q47,145 69,210 L82,206 Q72,178 59,152 L59,-29 L46,-29 L46,124 Q31,99 13,73 M150,206 L162,210 Q165,204 170,191 Q176,177 178,171 L164,167 Q160,181 150,206"/> 
            <glyph glyph-name="体" unicode="&#x4F53;" horiz-adv-x="250" d=" M70,13 Q69,15 63,19 Q60,22 59,23 Q116,74 137,145 L76,145 L76,157 L148,157 L148,209 L162,209 L162,157 L239,157 L239,145 L174,145 Q198,72 250,28 Q246,25 240,17 Q185,67 163,145 L162,145 L162,35 L204,35 L204,22 L162,22 L162,-29 L148,-29 L148,22 L107,22 L107,35 L148,35 L148,145 Q127,65 70,13 M12,77 Q10,81 6,89 Q5,91 5,91 Q41,141 63,209 L76,206 Q66,173 52,145 L52,-29 L39,-29 L39,119 Q26,95 12,77"/> 
            <glyph glyph-name="余" unicode="&#x4F59;" horiz-adv-x="247" d=" M61,128 L194,128 L194,115 L137,115 L137,75 L240,75 L240,62 L137,62 L137,0 Q138,-27 107,-28 Q92,-28 77,-28 Q77,-20 75,-14 Q88,-14 102,-14 Q125,-15 123,2 L123,62 L16,62 L16,75 L123,75 L123,115 L61,115 M239,108 Q164,142 128,191 Q89,143 17,105 Q16,107 13,112 Q10,116 8,118 Q89,156 127,212 L142,209 Q139,205 136,200 Q179,147 247,121 Q242,115 239,108 M231,-15 Q199,14 169,37 L179,46 Q186,40 200,29 Q229,6 242,-4 M70,47 L82,38 Q57,10 26,-18 Q21,-13 15,-7 Q40,12 70,47"/> 
            <glyph glyph-name="佛" unicode="&#x4F5B;" horiz-adv-x="243" d=" M80,118 L122,118 L122,159 L76,159 L76,171 L122,171 L122,208 L135,208 L135,171 L170,171 L170,208 L183,208 L183,171 L231,171 L231,106 L183,106 L183,66 L243,66 Q243,47 241,24 Q240,0 217,0 Q206,0 195,0 Q195,5 192,12 Q198,11 212,11 Q228,10 229,27 Q229,31 230,41 Q230,51 230,54 L183,54 L183,-25 L170,-25 L170,54 L132,54 Q127,5 81,-29 Q77,-24 71,-18 Q112,11 118,54 L72,54 M12,77 Q9,85 6,91 Q40,144 58,210 L71,206 Q62,176 50,147 L50,-29 L37,-29 L37,119 Q25,98 12,77 M135,159 L135,118 L170,118 L170,159 M218,159 L183,159 L183,118 L218,118 M135,106 Q135,84 133,66 L170,66 L170,106 M120,66 Q122,84 122,106 L91,106 L86,66"/> 
            <glyph glyph-name="作" unicode="&#x4F5C;" horiz-adv-x="249" d=" M86,101 Q81,106 75,110 Q111,153 129,210 L143,207 Q141,203 139,197 Q134,186 127,170 L249,170 L249,157 L158,157 L158,109 L236,109 L236,96 L158,96 L158,46 L242,46 L242,33 L158,33 L158,-29 L144,-29 L144,157 L121,157 Q108,128 86,101 M14,74 Q13,78 8,84 Q7,87 6,88 Q40,136 65,210 L78,206 Q67,176 55,149 L55,-29 L42,-29 L42,121 Q29,96 14,74"/> 
            <glyph glyph-name="你" unicode="&#x4F60;" horiz-adv-x="249" d=" M13,73 Q12,76 10,81 Q9,85 7,89 Q47,146 66,210 L80,205 Q71,175 57,148 L57,-29 L44,-29 L44,121 Q29,93 13,73 M214,116 L231,157 L121,157 Q109,133 94,110 Q89,114 82,118 Q111,161 129,208 L143,204 Q142,201 139,196 Q136,187 127,170 L245,170 L245,156 L228,112 Q225,113 219,114 Q216,116 214,116 M159,133 L173,133 L173,4 Q174,-25 142,-26 Q125,-26 115,-26 Q114,-18 112,-12 Q124,-12 139,-12 Q160,-13 159,5 M82,16 Q103,54 119,97 L131,93 Q112,42 95,9 Q89,13 82,16 M236,12 Q213,64 198,92 L210,98 Q226,69 249,18"/> 
            <glyph glyph-name="佳" unicode="&#x4F73;" horiz-adv-x="248" d=" M156,89 L169,89 L169,56 L237,56 L237,43 L169,43 L169,-4 L248,-4 L248,-17 L77,-17 L77,-4 L156,-4 L156,43 L90,43 L90,56 L156,56 M156,208 L169,208 L169,171 L235,171 L235,158 L169,158 L169,114 L244,114 L244,101 L81,101 L81,114 L156,114 L156,158 L91,158 L91,171 L156,171 M14,82 Q13,85 11,90 Q8,95 7,97 Q45,146 66,210 L79,206 Q73,188 59,157 Q56,151 55,148 L55,-29 L41,-29 L41,123 Q32,105 14,82"/> 
            <glyph glyph-name="依" unicode="&#x4F9D;" horiz-adv-x="249" d=" M67,40 Q62,45 58,51 Q115,92 150,155 L76,155 L76,168 L160,168 Q159,171 156,177 Q147,197 143,205 L156,210 Q168,186 173,172 L162,168 L248,168 L248,155 L165,155 Q165,155 164,153 Q163,152 162,151 Q168,110 179,83 Q209,105 227,121 L237,111 Q214,93 184,71 Q202,31 249,-2 Q242,-9 240,-13 Q165,37 152,134 Q139,113 123,94 L123,-3 Q143,5 168,20 Q168,17 171,7 Q153,0 125,-19 Q117,-23 112,-29 L102,-16 Q111,-5 110,5 L110,79 Q84,52 67,40 M12,80 Q11,84 6,94 Q42,144 63,208 L77,205 Q65,173 52,146 L52,-30 L39,-30 L39,121 Q27,100 12,80"/> 
            <glyph glyph-name="侧" unicode="&#x4FA7;" horiz-adv-x="239" d=" M73,196 L161,196 L161,43 L149,43 L149,183 L86,183 L86,43 L73,43 M11,78 Q10,84 8,90 Q6,92 6,94 Q38,148 53,209 L66,206 Q57,175 46,146 L46,-29 L33,-29 L33,118 Q23,96 11,78 M111,156 L123,156 L123,105 Q123,51 114,27 L121,34 Q137,21 173,-9 L163,-19 Q134,7 113,24 Q105,0 65,-29 Q60,-24 56,-18 Q92,5 101,27 Q112,49 111,105 M226,209 L238,209 L238,3 Q239,-24 214,-25 Q200,-26 188,-26 Q188,-24 187,-21 Q186,-15 185,-12 Q188,-12 195,-12 Q203,-13 207,-13 Q227,-14 226,6 M199,28 L187,28 L187,189 L199,189"/> 
            <glyph glyph-name="便" unicode="&#x4FBF;" horiz-adv-x="249" d=" M83,194 L245,194 L245,183 L168,183 L168,154 L234,154 L234,45 L221,45 L221,55 L166,55 Q162,26 147,8 Q177,-6 249,-13 Q244,-18 242,-26 Q167,-18 137,0 Q122,-13 78,-30 Q77,-28 74,-24 Q71,-19 70,-17 Q111,-4 125,6 Q108,20 93,39 L104,47 Q119,28 135,15 Q148,30 152,55 L88,55 L88,154 L155,154 L155,183 L83,183 M12,72 Q11,75 8,82 Q7,85 6,87 Q46,143 63,208 L76,205 Q66,173 54,143 L54,-30 L40,-30 L40,117 Q28,95 12,72 M154,67 Q155,81 155,99 L101,99 L101,67 M167,67 L221,67 L221,99 L168,99 Q168,81 167,67 M101,143 L101,111 L155,111 L155,143 M221,143 L168,143 L168,111 L221,111"/> 
            <glyph glyph-name="保" unicode="&#x4FDD;" horiz-adv-x="249" d=" M93,196 L227,196 L227,117 L93,117 M75,-13 Q74,-12 72,-10 Q68,-4 65,-2 Q117,22 143,67 L70,67 L70,80 L153,80 L153,108 L166,108 L166,80 L249,80 L249,67 L177,67 Q200,23 249,1 Q244,-3 240,-10 Q187,16 166,64 L166,-29 L153,-29 L153,63 Q127,10 75,-13 M107,184 L107,130 L213,130 L213,184 M13,77 Q13,79 10,84 Q7,89 6,90 Q41,139 60,208 L73,205 Q60,164 52,146 L52,-29 L39,-29 L39,119 Q28,98 13,77"/> 
            <glyph glyph-name="倍" unicode="&#x500D;" horiz-adv-x="250" d=" M97,66 L227,66 L227,-29 L214,-29 L214,-13 L110,-13 L110,-29 L97,-29 M110,54 L110,-1 L214,-1 L214,54 M11,76 Q8,84 5,91 Q41,142 60,208 L74,205 Q64,172 50,144 L50,-29 L36,-29 L36,117 Q24,96 11,76 M74,108 L250,108 L250,95 L74,95 M83,173 L241,173 L241,161 L83,161 M193,111 L182,119 Q196,136 207,155 L219,148 Q212,138 198,118 Q195,113 193,111 M106,147 L116,155 Q128,140 143,119 L132,112 Q127,120 116,134 Q109,143 106,147 M146,204 L157,210 Q167,196 176,181 L164,174 Q160,181 152,194 Q148,201 146,204"/> 
            <glyph glyph-name="倒" unicode="&#x5012;" horiz-adv-x="240" d=" M12,79 Q7,89 5,92 Q34,141 52,210 L66,208 Q64,202 60,190 Q58,181 49,157 L49,-29 L36,-29 L36,126 Q29,108 12,79 M162,98 Q157,106 154,112 Q117,111 71,107 L66,119 Q75,125 81,135 Q96,158 106,180 L72,180 L72,192 L166,192 L166,180 L122,180 Q108,154 85,120 Q97,121 126,122 Q141,123 148,123 Q146,126 143,132 Q140,138 131,151 L142,157 Q160,129 173,104 M112,97 L125,97 L125,67 L164,67 L164,54 L125,54 L125,5 Q149,8 173,11 Q173,6 173,0 Q119,-5 66,-13 L62,0 Q89,1 112,4 L112,54 L71,54 L71,67 L112,67 M225,209 L238,209 L238,3 Q240,-26 208,-25 Q194,-26 183,-26 Q183,-23 181,-15 Q180,-13 180,-12 Q182,-12 190,-12 Q202,-13 206,-13 Q227,-15 225,5 M184,170 L197,170 L197,29 L184,29"/> 
            <glyph glyph-name="像" unicode="&#x50CF;" horiz-adv-x="246" d=" M76,136 Q72,140 66,146 Q106,174 128,210 L141,207 Q135,198 129,189 L200,189 L200,178 L177,152 L232,152 L232,103 L154,103 Q151,99 147,94 Q162,82 170,67 Q196,80 223,98 L230,88 Q224,84 212,77 Q204,72 199,69 Q210,23 246,0 Q240,-3 236,-9 Q200,17 188,63 Q187,62 184,61 Q182,60 174,56 Q180,39 180,12 Q181,-24 142,-25 Q133,-25 121,-25 Q121,-19 119,-12 Q128,-13 141,-13 Q168,-14 167,13 Q167,27 166,37 Q135,3 74,-18 Q73,-17 70,-13 Q67,-10 66,-8 Q130,13 163,50 Q160,59 155,68 Q123,33 74,17 Q71,24 66,28 Q119,46 149,76 Q145,82 139,87 Q123,71 74,52 Q73,54 70,58 Q67,62 66,63 Q120,82 139,103 L88,103 L88,145 Q82,141 76,136 M12,77 Q7,87 5,90 Q38,138 60,208 L72,205 Q66,185 52,151 Q51,149 51,148 L51,-28 L38,-28 L38,121 Q27,98 12,77 M184,178 L120,178 Q108,165 95,152 L161,152 M219,142 L169,142 Q166,126 161,114 L219,114 M100,142 L100,114 L147,114 Q155,126 156,142"/> 
            <glyph glyph-name="元" unicode="&#x5143;" horiz-adv-x="249" d=" M10,120 L246,120 L246,107 L167,107 L167,13 Q165,-8 187,-6 L205,-6 Q228,-7 231,12 Q233,18 234,37 Q235,41 235,43 Q241,41 249,39 Q249,37 248,34 Q247,17 245,10 Q241,-22 206,-20 L184,-20 Q152,-21 153,9 L153,107 L96,107 Q96,95 95,91 Q99,6 21,-29 Q17,-23 11,-17 Q55,5 66,25 Q80,45 81,90 Q82,94 82,107 L10,107 M34,193 L223,193 L223,180 L34,180"/> 
            <glyph glyph-name="充" unicode="&#x5145;" horiz-adv-x="249" d=" M226,67 Q217,76 208,85 Q200,85 185,84 Q170,84 162,83 L162,8 Q161,-13 182,-12 L205,-12 Q229,-12 232,4 Q233,8 234,21 Q235,28 235,31 Q241,28 249,26 Q247,10 245,0 Q242,-26 205,-24 L179,-24 Q146,-25 148,4 L148,83 Q140,83 125,82 Q111,82 105,82 Q104,31 87,11 Q71,-10 18,-29 Q15,-23 9,-17 Q59,-1 74,17 Q90,35 91,81 Q86,81 77,80 Q69,80 65,80 Q48,80 39,78 L31,92 Q40,95 52,105 Q87,133 110,161 L13,161 L13,174 L127,174 Q122,193 117,206 L130,209 Q132,205 136,191 Q139,179 141,174 L245,174 L245,161 L116,161 L126,156 Q99,128 57,92 Q145,94 196,97 Q178,114 161,129 L171,138 Q200,112 237,77"/> 
            <glyph glyph-name="光" unicode="&#x5149;" horiz-adv-x="250" d=" M121,210 L135,210 L135,104 L248,104 L248,91 L165,91 L165,6 Q165,-10 185,-10 L212,-10 Q231,-11 233,3 Q233,5 234,10 Q236,26 236,37 Q240,35 248,34 Q249,33 250,33 Q247,12 246,0 Q241,-23 214,-23 L182,-23 Q152,-23 152,5 L152,91 L96,91 Q101,2 16,-29 Q15,-27 11,-23 Q8,-18 6,-16 Q86,7 82,91 L9,91 L9,104 L121,104 M179,126 L168,135 Q196,161 216,189 L228,180 Q207,155 179,126 M28,181 L39,189 Q52,175 77,145 Q82,140 84,137 L72,128 Q53,152 28,181"/> 
            <glyph glyph-name="克" unicode="&#x514B;" horiz-adv-x="249" d=" M121,211 L135,211 L135,182 L246,182 L246,169 L135,169 L135,136 L216,136 L216,58 L161,58 L161,4 Q160,-11 179,-11 L212,-11 Q230,-11 232,3 Q235,12 236,31 Q243,28 249,27 Q248,11 245,0 Q241,-24 214,-24 L175,-24 Q147,-24 147,2 L147,58 L103,58 Q105,-11 15,-30 Q14,-27 10,-20 Q9,-18 8,-17 Q92,-1 89,58 L40,58 L40,136 L121,136 L121,169 L9,169 L9,182 L121,182 M54,124 L54,70 L203,70 L203,124"/> 
            <glyph glyph-name="全" unicode="&#x5168;" horiz-adv-x="249" d=" M48,115 L207,115 L207,102 L135,102 L135,57 L217,57 L217,44 L135,44 L135,-3 L239,-3 L239,-16 L17,-16 L17,-3 L121,-3 L121,44 L39,44 L39,57 L121,57 L121,102 L48,102 M239,107 Q165,143 129,193 Q83,139 16,105 Q11,111 6,116 Q88,159 126,212 L141,209 Q139,206 136,203 Q177,151 249,120 Q246,115 239,107"/> 
            <glyph glyph-name="内" unicode="&#x5185;" horiz-adv-x="228" d=" M122,209 L136,209 Q136,184 136,165 L227,165 L227,4 Q228,-23 197,-24 Q178,-24 161,-24 Q160,-21 159,-14 Q158,-11 158,-9 Q171,-10 194,-10 Q214,-10 213,7 L213,152 L135,152 Q135,148 135,143 Q134,115 127,96 L134,103 Q173,71 200,45 L189,34 Q160,63 126,93 Q115,62 62,30 Q61,33 56,38 Q54,41 53,42 Q125,78 121,143 Q121,148 121,152 L42,152 L42,-27 L28,-27 L28,165 L122,165 Q122,184 122,209"/> 
            <glyph glyph-name="再" unicode="&#x518D;" horiz-adv-x="249" d=" M7,52 L40,52 L40,150 L121,150 L121,183 L16,183 L16,195 L240,195 L240,183 L135,183 L135,150 L216,150 L216,52 L249,52 L249,40 L216,40 L216,0 Q218,-25 187,-25 Q173,-26 155,-26 Q155,-24 154,-20 Q153,-14 152,-12 Q163,-12 185,-12 Q204,-13 202,1 L202,40 L53,40 L53,-29 L40,-29 L40,40 L7,40 M53,90 L53,52 L121,52 L121,90 M135,90 L135,52 L202,52 L202,90 M53,138 L53,102 L121,102 L121,138 M202,138 L135,138 L135,102 L202,102"/> 
            <glyph glyph-name="准" unicode="&#x51C6;" horiz-adv-x="248" d=" M66,100 Q65,101 62,104 Q57,108 55,110 Q91,149 117,209 L130,205 Q120,183 109,164 L246,164 L246,152 L181,152 L181,109 L243,109 L243,97 L181,97 L181,55 L243,55 L243,43 L181,43 L181,0 L248,0 L248,-10 L103,-10 L103,-29 L90,-29 L90,132 Q78,115 66,100 M103,43 L103,0 L167,0 L167,43 M103,97 L103,55 L167,55 L167,97 M103,152 L103,109 L167,109 L167,152 M11,-13 Q32,40 45,84 Q51,81 59,79 Q42,30 26,-19 M45,134 Q29,166 15,189 L26,195 Q42,168 57,141 M156,202 L168,209 Q171,204 178,193 Q187,179 190,173 L178,166 Q167,187 156,202"/> 
            <glyph glyph-name="凝" unicode="&#x51DD;" horiz-adv-x="249" d=" M152,57 Q153,68 153,80 L165,80 Q165,72 165,57 Q164,49 164,43 Q174,10 190,0 L190,106 L145,106 L145,118 L201,118 Q173,146 161,156 L170,164 Q179,156 190,145 L227,182 L151,182 L151,193 L240,193 L240,179 L199,137 Q207,130 211,125 L202,118 L244,118 L244,105 L235,81 L223,84 L232,106 L202,106 L202,59 L239,59 L239,48 L202,48 L202,-3 Q219,-7 249,-7 Q249,-8 248,-10 Q247,-11 245,-20 Q213,-20 196,-15 Q172,-5 162,21 Q157,-5 135,-29 Q131,-25 125,-20 Q154,5 152,57 M51,53 L89,53 Q91,68 91,87 L72,87 Q66,76 59,64 Q52,69 48,70 Q64,92 73,119 L85,115 Q83,111 80,102 Q79,99 78,98 L132,98 L132,87 L104,87 Q104,81 103,70 Q103,58 102,53 L135,53 L135,42 L101,42 Q101,41 100,38 Q100,35 99,34 Q106,27 127,10 Q125,12 131,7 L122,-1 Q118,2 109,10 Q100,18 95,21 Q86,-4 55,-27 Q52,-23 46,-18 Q83,7 88,42 L51,42 M62,207 L75,207 L75,176 Q107,184 129,192 L133,180 Q129,179 120,176 Q90,168 75,165 L75,155 Q74,136 91,137 L105,137 Q121,136 123,151 Q125,156 125,165 Q126,165 129,163 Q135,161 137,160 Q137,158 136,155 Q135,150 134,145 Q130,125 108,126 L87,126 Q61,125 62,152 M7,-7 Q17,29 28,94 Q30,92 38,91 Q40,90 41,90 Q28,31 20,-12 M34,134 Q33,136 31,141 Q17,172 9,187 L20,192 Q27,179 38,156 Q43,145 46,140"/> 
            <glyph glyph-name="分" unicode="&#x5206;" horiz-adv-x="248" d=" M39,99 L200,99 Q199,52 196,19 Q195,-22 152,-22 Q129,-23 114,-23 Q114,-16 112,-8 Q116,-8 126,-8 Q141,-9 151,-9 Q181,-11 182,21 Q185,51 185,87 L101,87 Q100,3 23,-30 Q22,-28 17,-22 Q15,-19 14,-18 Q86,8 87,87 L39,87 M148,205 L161,210 Q188,143 248,111 Q242,104 237,98 Q175,138 148,205 M17,98 Q16,100 12,104 Q9,108 7,109 Q63,147 95,206 L108,200 Q71,137 17,98"/> 
            <glyph glyph-name="制" unicode="&#x5236;" horiz-adv-x="237" d=" M7,119 L80,119 L80,157 L37,157 Q32,144 23,130 Q23,130 22,131 Q16,135 12,136 Q31,166 38,198 L51,196 Q50,193 48,187 Q45,175 42,169 L80,169 L80,208 L93,208 L93,169 L147,169 L147,157 L93,157 L93,119 L158,119 L158,106 L93,106 L93,73 L148,73 L148,15 Q149,-6 125,-7 Q118,-7 107,-7 Q106,-5 105,0 Q104,3 104,4 Q109,3 122,3 Q136,2 135,16 L135,61 L93,61 L93,-30 L80,-30 L80,61 L39,61 L39,-11 L26,-11 L26,73 L80,73 L80,106 L7,106 M222,208 L236,208 L236,4 Q237,-26 208,-25 Q191,-25 177,-25 Q177,-23 176,-18 Q175,-13 174,-11 Q179,-11 189,-12 Q199,-12 204,-12 Q223,-13 222,5 M187,35 L174,35 L174,184 L187,184"/> 
            <glyph glyph-name="刷" unicode="&#x5237;" horiz-adv-x="235" d=" M29,196 L156,196 L156,133 L42,133 L42,105 Q42,50 37,27 Q33,2 16,-25 Q9,-18 6,-16 Q21,8 25,30 Q29,52 29,104 M114,-29 L101,-29 L101,85 L72,85 L72,-1 L60,-1 L60,97 L101,97 L101,122 L114,122 L114,97 L157,97 L157,22 Q158,0 137,0 Q129,0 122,0 Q122,6 120,12 Q129,12 135,12 Q146,11 145,23 L145,85 L114,85 M42,184 L42,145 L143,145 L143,184 M222,209 L234,209 L234,2 Q235,-24 209,-24 Q200,-25 182,-25 Q181,-17 179,-11 Q194,-12 204,-12 Q223,-13 222,4 M195,34 L182,34 L182,183 L195,183"/> 
            <glyph glyph-name="刻" unicode="&#x523B;" horiz-adv-x="238" d=" M72,205 L84,210 Q89,202 97,185 Q99,181 100,179 L90,174 L153,174 L153,162 L79,162 Q57,127 39,103 Q48,104 75,105 Q86,106 92,106 Q103,123 112,142 L124,137 Q86,57 17,15 Q14,21 8,26 Q57,56 83,94 Q76,94 58,93 Q34,92 25,91 L20,103 Q42,123 63,162 L14,162 L14,174 L87,174 Q81,190 72,205 M222,206 L236,206 L236,5 Q238,-23 206,-24 Q197,-25 176,-25 Q176,-20 174,-10 Q182,-11 201,-11 Q223,-12 222,7 M20,-18 Q97,19 134,98 L146,93 Q132,63 108,32 Q116,24 132,10 Q149,-4 158,-12 L147,-23 Q137,-13 118,6 Q106,17 100,23 Q77,-2 30,-30 Q29,-28 25,-24 Q22,-20 20,-18 M173,180 L187,180 L187,28 L173,28"/> 
            <glyph glyph-name="功" unicode="&#x529F;" horiz-adv-x="237" d=" M108,157 L143,157 Q144,175 144,208 L158,208 Q158,174 157,157 L237,157 Q235,71 232,15 Q232,-24 191,-23 Q181,-24 155,-24 Q154,-20 153,-14 Q152,-11 152,-9 Q163,-10 190,-10 Q218,-11 218,14 Q221,59 223,144 L156,144 Q156,140 156,132 Q155,124 155,120 Q151,18 79,-29 Q77,-27 72,-22 Q68,-19 67,-18 Q138,22 141,121 Q141,124 141,130 Q142,139 142,144 L108,144 M11,15 L7,29 Q26,34 51,40 L51,165 L9,165 L9,178 L103,178 L103,165 L65,165 L65,44 Q81,48 103,54 Q103,50 105,40 Q74,32 11,15"/> 
            <glyph glyph-name="动" unicode="&#x52A8;" horiz-adv-x="241" d=" M162,210 L175,210 Q175,187 175,157 L241,157 Q241,153 241,145 Q239,41 237,15 Q235,-22 201,-23 Q186,-23 170,-23 Q168,-14 165,-7 Q171,-7 182,-8 Q193,-8 199,-8 Q222,-9 223,15 Q227,88 227,144 L174,144 Q174,132 173,119 Q173,25 119,-29 Q117,-27 111,-23 Q108,-21 107,-20 Q158,28 159,120 Q160,124 160,132 Q161,140 161,144 L122,144 L122,157 L161,157 Q161,165 161,182 Q162,200 162,210 M108,0 Q105,5 102,11 Q80,10 47,7 Q36,6 30,5 Q25,4 18,3 Q19,3 14,2 L8,14 Q16,20 21,32 Q35,61 52,104 L8,104 L8,118 L123,118 L123,104 L67,104 Q48,58 28,17 Q61,19 97,23 Q93,32 84,52 Q79,61 77,66 L89,71 Q100,51 119,10 Q120,7 121,5 M19,188 L113,188 L113,175 L19,175"/> 
            <glyph glyph-name="十" unicode="&#x5341;" horiz-adv-x="247" d=" M121,209 L135,209 L135,116 L247,116 L247,101 L135,101 L135,-29 L121,-29 L121,101 L9,101 L9,116 L121,116"/> 
            <glyph glyph-name="升" unicode="&#x5347;" horiz-adv-x="248" d=" M174,209 L188,209 L188,102 L248,102 L248,89 L188,89 L188,-28 L174,-28 L174,89 L88,89 Q92,8 22,-30 Q16,-21 11,-18 Q77,12 74,89 L8,89 L8,102 L74,102 L74,172 Q64,171 44,169 Q27,168 18,167 Q18,175 16,181 Q83,185 144,194 L147,181 Q120,177 88,174 L88,102 L174,102"/> 
            <glyph glyph-name="单" unicode="&#x5355;" horiz-adv-x="248" d=" M8,34 L121,34 L121,65 L33,65 L33,172 L154,172 Q156,175 161,181 Q168,190 183,211 L195,204 Q182,186 170,172 L223,172 L223,65 L135,65 L135,34 L248,34 L248,21 L135,21 L135,-31 L121,-31 L121,21 L8,21 M135,113 L135,78 L210,78 L210,113 M46,113 L46,78 L121,78 L121,113 M210,159 L135,159 L135,125 L210,125 M46,159 L46,125 L121,125 L121,159 M60,203 L71,211 Q74,207 83,198 Q97,184 100,180 L88,172 Q74,191 60,203"/> 
            <glyph glyph-name="卡" unicode="&#x5361;" horiz-adv-x="247" d=" M111,210 L125,210 L125,172 L231,172 L231,159 L125,159 L125,114 L247,114 L247,101 L10,101 L10,114 L111,114 M222,10 Q188,30 125,60 L125,-29 L111,-29 L111,91 L125,91 L125,62 L131,71 Q172,52 231,23"/> 
            <glyph glyph-name="却" unicode="&#x5374;" horiz-adv-x="237" d=" M10,100 L67,100 L67,151 L17,151 L17,163 L67,163 L67,209 L80,209 L80,163 L127,163 L127,151 L80,151 L80,100 L134,100 L134,88 L64,88 L75,84 Q52,45 29,15 Q46,15 84,17 Q100,18 108,18 Q105,25 97,38 Q90,52 86,58 L98,63 Q103,54 112,38 Q118,27 136,-6 L124,-12 Q123,-10 121,-6 Q119,-2 113,6 Q92,5 61,4 Q46,3 38,3 Q26,2 17,0 L10,14 Q14,16 26,30 Q25,29 27,31 Q47,59 61,88 L10,88 M149,189 L235,189 L235,50 Q237,14 201,15 Q190,14 179,14 Q178,22 176,28 Q185,28 199,28 Q224,26 222,52 L222,177 L163,177 L163,-29 L149,-29"/> 
            <glyph glyph-name="双" unicode="&#x53CC;" horiz-adv-x="250" d=" M118,177 L118,190 L233,190 L233,177 Q219,85 185,41 Q208,9 250,-12 Q247,-14 241,-24 Q240,-25 240,-25 Q197,1 176,30 Q152,-1 99,-30 Q97,-27 93,-22 Q90,-18 90,-17 Q142,9 168,42 Q135,88 126,177 M13,144 L25,151 Q32,140 46,118 Q63,92 71,80 Q87,118 94,177 L9,177 L9,190 L108,190 L108,177 Q99,107 80,66 Q98,36 114,11 L101,3 Q97,9 90,21 Q78,41 72,50 Q54,16 18,-21 Q14,-16 7,-11 Q45,28 64,64 Q52,84 25,125 Q17,138 13,144 M219,177 L140,177 Q147,96 177,53 Q208,96 219,177"/> 
            <glyph glyph-name="发" unicode="&#x53D1;" horiz-adv-x="247" d=" M33,153 L93,153 Q100,180 104,210 L119,208 Q117,200 114,183 Q110,163 108,153 L247,153 L247,140 L104,140 Q99,121 93,103 L218,103 L218,91 Q200,46 164,17 Q189,0 246,-13 Q243,-17 239,-25 Q238,-26 238,-27 Q184,-12 152,8 Q124,-8 59,-30 Q58,-26 53,-20 Q52,-17 51,-16 Q115,0 141,17 Q106,46 91,91 L88,91 Q63,29 16,-18 Q14,-15 9,-11 Q6,-8 5,-7 Q68,52 90,140 L19,140 L19,156 Q30,179 37,201 L51,197 Q50,193 47,186 Q38,163 33,153 M204,91 L104,91 Q119,51 153,25 Q188,52 204,91 M164,196 L172,206 Q194,192 215,177 L206,166 Q178,187 164,196"/> 
            <glyph glyph-name="变" unicode="&#x53D8;" horiz-adv-x="246" d=" M36,67 L36,80 L202,80 L202,65 Q178,32 142,10 Q182,-6 246,-13 Q245,-16 243,-20 Q240,-25 239,-27 Q171,-18 127,2 Q84,-17 18,-30 Q15,-24 10,-17 Q74,-5 114,10 Q85,30 61,67 M116,207 L130,211 Q136,198 142,180 L131,177 L244,177 L244,164 L164,164 L164,97 L151,97 L151,164 L105,164 L105,96 L92,96 L92,164 L11,164 L11,177 L129,177 Q123,192 116,207 M186,67 L78,67 Q99,36 128,18 Q160,34 186,67 M187,135 L197,144 Q210,133 235,107 Q242,100 246,96 L235,86 Q219,104 187,135 M55,144 L66,135 Q47,113 20,87 Q15,93 9,97 Q32,116 55,144"/> 
            <glyph glyph-name="可" unicode="&#x53EF;" horiz-adv-x="249" d=" M35,134 L139,134 L139,36 L49,36 L49,16 L35,16 M8,190 L249,190 L249,177 L207,177 L207,5 Q208,-24 174,-24 Q159,-25 136,-25 Q136,-23 135,-20 Q134,-14 133,-10 Q155,-11 170,-11 Q194,-12 193,9 L193,177 L8,177 M49,122 L49,49 L126,49 L126,122"/> 
            <glyph glyph-name="哪" unicode="&#x54EA;" horiz-adv-x="247" d=" M78,133 L99,133 Q99,141 99,157 Q100,174 100,183 L78,183 L78,195 L156,195 Q156,170 155,111 Q154,41 153,13 Q153,-20 122,-21 Q111,-21 102,-21 Q102,-13 100,-7 Q104,-8 119,-8 Q142,-10 140,14 Q141,21 141,37 Q142,52 142,60 L107,60 Q104,9 68,-28 Q63,-23 57,-20 Q91,14 95,60 L77,60 L77,71 L96,71 Q97,86 99,121 L78,121 M17,184 L65,184 L65,31 L29,31 L29,11 L17,11 M246,45 Q246,15 222,11 Q212,9 201,9 Q200,15 198,23 Q207,23 216,23 Q234,23 233,47 Q234,73 209,104 L229,181 L190,181 L190,-29 L178,-29 L178,193 L242,193 L242,180 L222,106 Q247,78 246,45 M29,172 L29,42 L54,42 L54,172 M142,71 Q142,95 143,121 L111,121 Q110,94 108,71 M143,183 L112,183 Q112,157 111,133 L143,133 Q143,159 143,183"/> 
            <glyph glyph-name="喜" unicode="&#x559C;" horiz-adv-x="248" d=" M71,76 L80,83 L40,83 L40,126 L215,126 L215,83 L175,83 L187,76 Q177,64 167,54 L248,54 L248,43 L9,43 L9,54 L90,54 Q82,65 71,76 M38,24 L218,24 L218,-29 L205,-29 L205,-20 L51,-20 L51,-29 L38,-29 M31,156 L121,156 L121,176 L15,176 L15,187 L121,187 L121,209 L134,209 L134,187 L241,187 L241,176 L134,176 L134,156 L225,156 L225,145 L31,145 M51,13 L51,-9 L205,-9 L205,13 M54,115 L54,93 L202,93 L202,115 M102,61 L92,54 L151,54 Q167,72 174,83 L82,83 Q85,80 92,72 Q99,65 102,61"/> 
            <glyph glyph-name="器" unicode="&#x5668;" horiz-adv-x="248" d=" M241,53 Q153,57 131,98 L125,98 Q115,63 14,51 Q13,53 11,57 Q8,61 7,63 Q99,73 111,98 L15,98 L15,109 L116,109 Q119,118 120,130 L133,130 Q132,118 129,109 L180,109 Q176,116 170,126 L182,131 Q188,121 194,109 L243,109 L243,98 L145,98 Q168,67 248,66 Q247,64 243,57 Q241,54 241,53 M143,45 L227,45 L227,-29 L214,-29 L214,-16 L156,-16 L156,-28 L143,-28 M28,45 L111,45 L111,-28 L99,-28 L99,-16 L41,-16 L41,-29 L28,-29 M143,196 L226,196 L226,135 L143,135 M28,196 L110,196 L110,135 L28,135 M156,34 L156,-5 L214,-5 L214,34 M41,34 L41,-5 L99,-5 L99,34 M156,185 L156,146 L213,146 L213,185 M41,185 L41,146 L98,146 L98,185"/> 
            <glyph glyph-name="因" unicode="&#x56E0;" horiz-adv-x="232" d=" M24,196 L232,196 L232,-29 L218,-29 L218,-13 L37,-13 L37,-29 L24,-29 M37,183 L37,0 L218,0 L218,183 M121,168 L135,168 L135,126 L197,126 L197,114 L134,114 Q134,103 131,91 Q172,58 203,32 L192,21 Q175,37 144,65 Q133,74 128,79 Q115,41 59,14 Q57,17 52,25 Q50,26 50,27 Q121,54 121,114 L59,114 L59,126 L121,126"/> 
            <glyph glyph-name="图" unicode="&#x56FE;" horiz-adv-x="235" d=" M20,200 L235,200 L235,-29 L222,-29 L222,-17 L33,-17 L33,-29 L20,-29 M33,188 L33,-4 L222,-4 L222,188 M57,114 Q54,119 49,123 Q80,147 102,179 L113,173 Q111,170 105,163 Q102,160 101,158 L192,158 L192,146 Q172,122 145,106 Q174,94 211,88 Q208,82 206,76 Q166,84 133,99 Q98,81 50,71 Q47,77 44,83 Q88,90 121,106 Q101,119 83,137 Q80,135 74,129 Q72,126 57,114 M177,147 L92,147 L91,146 Q109,125 133,112 Q159,127 177,147 M66,29 L70,41 Q132,32 184,22 L180,10 Q115,24 66,29 M92,62 L96,74 Q107,72 132,68 Q158,63 168,61 L164,50 Q128,58 92,62"/> 
            <glyph glyph-name="在" unicode="&#x5728;" horiz-adv-x="248" d=" M103,210 L117,208 Q111,190 104,175 L248,175 L248,162 L98,162 Q84,130 63,103 L63,-28 L49,-28 L49,87 Q30,65 16,54 Q13,59 7,65 Q60,111 83,162 L18,162 L18,175 L89,175 Q97,191 103,210 M154,142 L167,142 L167,92 L234,92 L234,80 L167,80 L167,2 L248,2 L248,-9 L75,-9 L75,2 L154,2 L154,80 L88,80 L88,92 L154,92"/> 
            <glyph glyph-name="增" unicode="&#x589E;" horiz-adv-x="239" d=" M87,175 L135,175 Q124,190 112,204 L123,211 Q135,197 146,182 L136,175 L176,175 Q187,187 203,211 L215,204 Q211,199 203,189 Q195,179 191,175 L239,175 L239,94 L87,94 M97,71 L228,71 L228,-30 L216,-30 L216,-18 L110,-18 L110,-30 L97,-30 M11,2 L6,15 Q21,20 39,24 L39,130 L10,130 L10,142 L39,142 L39,208 L52,208 L52,142 L77,142 L77,130 L52,130 L52,27 Q55,28 62,30 Q76,35 82,36 Q82,31 82,23 Q47,14 11,2 M226,164 L169,164 L169,104 L226,104 M100,164 L100,104 L156,104 L156,164 M110,20 L110,-7 L216,-7 L216,20 M110,60 L110,31 L216,31 L216,60 M215,145 Q212,140 197,123 Q193,118 192,117 L182,125 Q197,140 205,152 M111,146 L121,153 Q128,144 143,126 L133,118 Q126,128 111,146"/> 
            <glyph glyph-name="处" unicode="&#x5904;" horiz-adv-x="250" d=" M4,75 Q37,137 51,208 L66,206 Q60,182 53,159 L121,159 L121,144 Q113,79 82,35 Q108,5 142,-1 Q184,-10 250,-5 Q249,-8 247,-14 Q246,-18 245,-21 Q165,-22 141,-15 Q101,-8 74,24 Q55,-1 16,-30 Q11,-24 6,-19 Q44,7 66,35 Q45,65 35,108 Q27,87 15,66 Q8,73 4,75 M107,146 L49,146 Q46,137 43,129 Q53,78 74,47 Q101,88 107,146 M161,208 L174,208 L174,129 L182,137 Q212,116 244,92 L234,80 Q207,102 174,125 L174,9 L161,9"/> 
            <glyph glyph-name="备" unicode="&#x5907;" horiz-adv-x="248" d=" M40,83 L216,83 L216,-29 L202,-29 L202,-18 L53,-18 L53,-29 L40,-29 M241,91 Q168,102 131,118 Q88,100 13,86 Q11,89 8,96 Q7,99 6,100 Q74,109 116,126 Q90,139 65,168 Q44,145 23,129 Q19,134 13,138 Q58,172 81,212 L94,206 Q87,197 81,188 L215,188 L215,175 Q184,143 148,125 Q188,110 248,106 Q247,104 245,99 Q242,94 241,91 M198,176 L74,176 Q98,148 132,132 Q166,147 198,176 M202,72 L134,72 L134,37 L202,37 M134,26 L134,-6 L202,-6 L202,26 M53,72 L53,37 L121,37 L121,72 M53,26 L53,-6 L121,-6 L121,26"/> 
            <glyph glyph-name="外" unicode="&#x5916;" horiz-adv-x="249" d=" M14,69 Q13,72 8,77 Q6,80 5,81 Q42,135 63,210 L78,206 Q76,200 72,190 Q67,174 64,166 L132,166 L132,152 Q119,32 22,-28 Q21,-26 17,-22 Q14,-17 12,-15 Q106,38 118,152 L58,152 Q50,134 41,115 Q61,102 85,82 L75,71 Q73,73 68,77 Q47,95 35,104 Q26,87 14,69 M163,209 L177,209 L177,123 L185,131 Q187,129 192,126 Q229,101 249,85 L239,73 Q235,76 228,82 Q195,107 177,120 L177,-29 L163,-29"/> 
            <glyph glyph-name="多" unicode="&#x591A;" horiz-adv-x="238" d=" M157,115 L169,108 Q157,98 145,89 L238,89 L238,75 Q166,-5 22,-30 Q21,-28 19,-24 Q17,-19 16,-17 Q151,4 221,77 L127,77 Q116,68 104,62 Q112,56 128,45 Q138,38 143,34 L133,24 Q112,42 92,55 Q67,41 37,29 Q29,42 29,42 Q102,69 157,115 M127,213 L142,209 Q129,197 114,186 L227,186 L227,173 Q157,108 18,73 Q17,76 14,83 Q12,85 12,86 Q139,116 208,173 L98,173 Q92,169 84,164 Q105,152 125,137 L116,127 Q109,132 97,140 Q82,151 73,157 Q65,152 46,142 Q37,138 32,135 Q29,141 24,147 Q84,172 127,213"/> 
            <glyph glyph-name="夜" unicode="&#x591C;" horiz-adv-x="247" d=" M239,-25 Q196,-11 162,14 Q130,-9 82,-29 Q81,-28 80,-26 Q76,-20 74,-17 Q127,3 151,23 Q126,47 109,84 Q97,66 84,50 Q79,56 73,60 Q109,99 133,155 L146,151 Q140,138 134,126 L225,126 L225,114 Q209,58 172,23 Q200,0 247,-12 Q242,-18 239,-25 M212,114 L127,114 Q126,111 122,105 Q119,99 117,96 Q136,55 162,32 Q194,62 212,114 M117,205 L129,210 Q139,195 148,180 L137,174 L247,174 L247,161 L13,161 L13,174 L135,174 Q126,191 117,205 M13,43 Q12,47 9,53 Q8,56 7,58 Q44,97 70,153 L83,148 Q70,122 57,101 L57,-29 L44,-29 L44,81 Q30,61 13,43 M142,95 L151,103 Q153,101 156,98 Q172,84 180,76 L170,67 Q158,81 142,95"/> 
            <glyph glyph-name="大" unicode="&#x5927;" horiz-adv-x="248" d=" M20,-28 Q18,-26 15,-23 Q11,-18 9,-16 Q114,34 119,127 L10,127 L10,141 L120,141 Q123,174 122,209 L136,209 Q136,164 135,141 L246,141 L246,127 L135,127 Q150,30 248,-11 Q239,-21 238,-24 Q144,19 128,104 Q117,19 20,-28"/> 
            <glyph glyph-name="天" unicode="&#x5929;" horiz-adv-x="248" d=" M20,-28 Q14,-19 9,-16 Q108,25 117,99 L9,99 L9,113 L119,113 Q121,133 121,180 L23,180 L23,193 L234,193 L234,180 L135,180 Q135,135 133,113 L247,113 L247,99 L138,99 Q155,14 248,-12 Q245,-16 241,-21 Q239,-24 238,-25 Q144,7 128,89 Q115,13 20,-28"/> 
            <glyph glyph-name="失" unicode="&#x5931;" horiz-adv-x="247" d=" M19,-29 Q15,-23 9,-16 Q107,14 119,77 L10,77 L10,90 L122,90 Q126,111 127,147 L57,147 Q47,128 33,110 Q29,112 20,118 Q52,157 65,199 L78,195 Q72,177 63,160 L127,160 Q127,166 127,179 Q128,198 128,210 L143,210 Q143,202 142,185 Q142,168 141,160 L233,160 L233,147 L140,147 Q139,116 136,90 L247,90 L247,77 L139,77 Q158,9 247,-12 Q239,-22 238,-26 Q147,1 129,67 Q115,3 19,-29"/> 
            <glyph glyph-name="头" unicode="&#x5934;" horiz-adv-x="247" d=" M9,74 L136,74 Q143,107 144,209 L158,209 Q157,111 151,74 L247,74 L247,61 L148,61 Q147,53 144,47 Q190,20 241,-11 L231,-24 Q211,-10 174,13 Q150,28 138,36 Q117,-1 19,-29 Q18,-27 15,-23 Q12,-18 10,-16 Q126,13 133,61 L9,61 M83,95 Q49,120 24,136 L32,146 Q61,129 92,107 M112,148 Q88,166 55,188 L63,198 Q96,177 122,159"/> 
            <glyph glyph-name="好" unicode="&#x597D;" horiz-adv-x="249" d=" M109,10 L98,0 Q88,7 65,27 Q50,3 17,-24 Q12,-19 6,-13 Q40,10 55,36 Q49,41 37,52 Q24,62 18,67 Q24,91 34,144 L10,144 L10,157 L37,157 Q39,166 41,183 Q44,201 45,209 L59,208 Q55,181 50,157 L97,157 L97,144 Q91,74 72,39 Q92,24 109,10 M154,-11 Q173,-12 172,6 L172,84 L103,84 L103,97 L172,97 L172,137 L222,180 L113,180 L113,192 L239,192 L239,177 L186,132 L186,97 L249,97 L249,84 L186,84 L186,4 Q187,-24 156,-25 Q139,-25 127,-25 Q126,-18 124,-10 Q139,-11 154,-11 M83,144 L48,144 Q40,102 47,138 Q40,102 31,72 Q34,70 41,65 Q45,62 62,48 Q80,85 83,144"/> 
            <glyph glyph-name="如" unicode="&#x5982;" horiz-adv-x="236" d=" M143,180 L236,180 L236,-18 L222,-18 L222,0 L157,0 L157,-21 L143,-21 M125,2 L114,-8 Q112,-6 108,-3 Q97,7 76,25 Q60,0 17,-29 Q11,-21 7,-17 Q50,11 65,34 Q56,42 38,57 Q27,66 22,70 Q33,106 41,144 L9,144 L9,158 L44,158 Q49,182 53,209 L68,207 Q64,183 58,158 L114,158 L114,145 Q109,76 84,37 Q94,30 112,13 Q121,6 125,2 M157,167 L157,13 L222,13 L222,167 M101,144 L55,144 Q46,101 37,74 Q55,61 73,46 Q92,78 101,144"/> 
            <glyph glyph-name="存" unicode="&#x5B58;" horiz-adv-x="249" d=" M95,212 L110,208 Q104,195 100,183 L248,183 L248,170 L94,170 Q79,137 60,108 L60,-29 L46,-29 L46,88 Q32,70 15,50 Q11,56 5,62 Q51,108 79,170 L14,170 L14,183 L84,183 Q90,197 95,212 M163,86 L215,124 L95,124 L95,137 L232,137 L232,122 L176,81 L176,68 L249,68 L249,56 L176,56 L176,0 Q178,-26 148,-26 Q136,-27 117,-27 Q117,-25 116,-22 Q115,-16 114,-12 Q130,-13 145,-13 Q164,-14 163,0 L163,56 L76,56 L76,68 L163,68"/> 
            <glyph glyph-name="学" unicode="&#x5B66;" horiz-adv-x="248" d=" M126,67 L180,98 L56,98 L56,111 L197,111 L197,95 L140,61 L140,51 L248,51 L248,38 L140,38 L140,1 Q141,-28 111,-28 Q96,-28 78,-28 Q78,-26 77,-23 Q76,-16 75,-12 Q90,-13 107,-13 Q128,-15 126,4 L126,38 L8,38 L8,51 L126,51 M17,155 L240,155 L240,108 L226,108 L226,142 L31,142 L31,108 L17,108 M184,158 L172,167 Q191,186 206,206 L218,197 Q213,191 202,179 Q190,165 184,158 M105,204 L117,210 Q131,192 144,171 L131,164 Q118,186 105,204 M37,197 L48,204 Q66,184 77,169 L65,160 Q55,175 37,197"/> 
            <glyph glyph-name="定" unicode="&#x5B9A;" horiz-adv-x="248" d=" M17,-29 Q16,-28 13,-24 Q9,-20 7,-18 Q49,18 55,86 L70,84 Q66,60 60,41 Q88,-2 127,-6 L127,109 L12,109 L12,121 L244,121 L244,109 L141,109 L141,62 L228,62 L228,49 L141,49 L141,-7 Q192,-9 248,-7 Q245,-15 243,-22 Q164,-22 135,-21 Q85,-19 55,26 Q43,-4 17,-29 M118,207 L133,210 Q134,207 136,200 Q139,187 140,180 L236,180 L236,137 L223,137 L223,167 L34,167 L34,138 L21,138 L21,180 L125,180 Q122,194 118,207"/> 
            <glyph glyph-name="宝" unicode="&#x5B9D;" horiz-adv-x="247" d=" M32,70 L120,70 L120,113 L25,113 L25,125 L229,125 L229,113 L134,113 L134,70 L223,70 L223,57 L134,57 L134,-3 L247,-3 L247,-15 L9,-15 L9,-3 L120,-3 L120,57 L32,57 M113,205 L125,210 Q134,198 143,180 L133,176 L238,176 L238,139 L225,139 L225,163 L31,163 L31,139 L17,139 L17,176 L129,176 Q122,190 113,205 M169,38 L180,47 Q184,43 194,32 Q205,19 209,15 L198,6 Q190,17 169,38"/> 
            <glyph glyph-name="实" unicode="&#x5B9E;" horiz-adv-x="246" d=" M17,-30 Q16,-26 11,-20 Q10,-17 9,-16 Q108,3 128,42 L11,42 L11,55 L134,55 Q144,82 144,146 L158,146 Q158,83 149,55 L246,55 L246,42 L144,42 Q143,41 142,38 Q140,34 138,32 Q149,27 169,18 Q215,-1 242,-13 L234,-26 Q208,-13 166,5 Q143,16 130,22 Q101,-11 17,-30 M114,205 L126,210 Q127,209 128,206 Q138,191 143,180 L132,175 L240,175 L240,133 L226,133 L226,162 L30,162 L30,133 L16,133 L16,175 L130,175 Q127,180 122,190 Q117,200 114,205 M86,69 Q64,83 38,95 L45,106 Q67,96 94,81 M109,106 Q87,119 62,133 L69,143 Q84,135 109,122 Q114,119 117,118"/> 
            <glyph glyph-name="密" unicode="&#x5BC6;" horiz-adv-x="247" d=" M13,51 Q12,54 9,59 Q8,62 7,63 Q40,72 75,87 L75,92 L75,144 L87,144 L87,94 L87,92 Q149,121 193,152 L202,142 Q147,105 90,80 Q95,70 111,70 L161,70 Q179,70 181,84 Q184,93 185,105 Q187,104 192,102 Q196,101 198,100 Q197,97 196,90 Q194,81 193,78 Q187,58 162,58 L107,58 Q83,58 77,74 Q46,62 13,51 M121,50 L134,50 L134,-6 L205,-6 L205,40 L218,40 L218,-29 L205,-29 L205,-18 L37,-18 L37,40 L50,40 L50,-6 L121,-6 M115,207 L129,210 Q134,200 138,184 L240,184 L240,145 L227,145 L227,172 L29,172 L29,145 L16,145 L16,184 L123,184 Q120,195 115,207 M44,138 L56,133 Q52,124 39,101 Q35,92 32,87 Q26,91 20,94 Q32,112 44,138 M206,123 L216,130 Q224,120 239,102 Q244,95 247,91 L236,83 Q222,105 206,123 M107,154 L115,162 Q130,150 144,137 L134,128 Q129,133 120,142 Q111,150 107,154"/> 
            <glyph glyph-name="尊" unicode="&#x5C0A;" horiz-adv-x="247" d=" M74,205 L83,212 Q95,202 105,190 L96,184 L152,184 Q165,199 174,211 L185,205 Q173,191 166,184 L244,184 L244,172 L158,172 L158,150 L223,150 L223,56 L33,56 L33,150 L99,150 Q99,159 99,172 L13,172 L13,184 L94,184 Q91,188 84,195 Q78,202 74,205 M173,120 Q194,120 202,121 Q201,115 199,110 L169,110 Q146,110 146,130 L146,139 L109,139 Q106,114 65,102 Q65,103 63,104 Q62,107 58,113 Q93,121 97,139 L46,139 L46,95 L210,95 L210,139 L158,139 L158,131 Q157,119 173,120 M182,49 L195,49 L195,34 L247,34 L247,23 L195,23 L195,2 Q196,-25 166,-26 Q146,-27 129,-27 Q129,-25 128,-20 Q127,-16 126,-13 Q138,-14 162,-14 Q183,-15 182,2 L182,23 L8,23 L8,34 L182,34 M46,84 L46,67 L210,67 L210,84 M112,172 Q111,160 111,150 L146,150 L146,172 M56,12 L63,21 Q69,18 82,10 Q97,1 105,-2 L97,-13 Q75,1 56,12"/> 
            <glyph glyph-name="小" unicode="&#x5C0F;" horiz-adv-x="249" d=" M63,152 L78,147 Q54,81 23,23 Q16,28 8,31 Q40,82 63,152 M176,145 L189,151 Q208,117 249,34 L234,27 Q207,87 176,145 M123,207 L138,207 L138,4 Q139,-25 107,-26 Q91,-26 73,-26 Q72,-19 69,-11 Q85,-11 101,-11 Q125,-13 123,8"/> 
            <glyph glyph-name="就" unicode="&#x5C31;" horiz-adv-x="250" d=" M25,137 L119,137 L119,72 L78,72 L78,0 Q80,-25 53,-25 Q43,-25 35,-25 Q35,-18 32,-12 Q35,-12 43,-13 Q49,-13 51,-13 Q66,-13 65,0 L65,72 L25,72 M160,210 L173,210 Q173,163 172,138 L242,138 L242,126 L198,126 L198,4 Q197,-11 212,-10 L217,-10 Q232,-11 234,6 Q237,23 237,39 Q239,39 244,37 Q248,36 250,35 Q249,17 246,2 Q243,-24 218,-23 L209,-23 Q185,-23 185,0 L185,126 L171,126 Q168,25 115,-29 Q110,-26 104,-20 Q158,33 158,126 L131,126 L131,138 L159,138 Q160,161 160,210 M38,125 L38,83 L106,83 L106,125 M70,176 L132,176 L132,164 L9,164 L9,176 L70,176 Q70,177 69,179 Q65,198 61,208 L74,211 Q76,204 80,191 Q82,183 83,179 M34,54 L46,49 Q37,28 20,0 Q17,0 12,3 Q9,4 8,5 Q22,26 34,54 M189,184 L198,193 Q217,179 232,167 L223,157 Q215,164 189,184 M91,51 L101,57 Q103,55 106,50 Q117,35 122,27 L112,20 Q110,24 102,34 Q95,46 91,51"/> 
            <glyph glyph-name="尼" unicode="&#x5C3C;" horiz-adv-x="249" d=" M230,123 L52,123 L52,112 Q54,25 20,-27 Q14,-23 6,-18 Q40,28 38,113 L38,196 L230,196 M52,183 L52,136 L217,136 L217,183 M232,89 Q176,56 107,30 L107,10 Q108,-8 133,-9 L203,-9 Q227,-9 230,9 Q233,21 235,43 Q239,41 247,40 Q248,39 249,39 Q248,36 248,29 Q245,12 243,5 Q238,-22 205,-22 L128,-22 Q94,-21 93,8 L93,112 L107,112 L107,45 Q166,65 223,100"/> 
            <glyph glyph-name="屏" unicode="&#x5C4F;" horiz-adv-x="249" d=" M236,138 L48,138 L48,101 Q48,50 42,25 Q35,-1 16,-28 Q11,-23 5,-20 Q24,5 29,29 Q35,52 35,101 L35,196 L236,196 M67,99 L164,99 Q182,125 188,137 L200,130 Q190,115 177,99 L234,99 L234,87 L192,87 L192,48 L249,48 L249,36 L192,36 L192,-29 L179,-29 L179,36 L118,36 Q117,-1 76,-30 Q69,-23 66,-21 Q104,4 105,36 L56,36 L56,48 L106,48 Q106,53 106,59 L106,87 L67,87 M48,184 L48,150 L223,150 L223,184 M119,59 Q119,53 119,48 L179,48 L179,87 L119,87 M97,130 L107,136 Q121,120 129,109 L118,101 Q117,103 114,107 Q104,122 97,130"/> 
            <glyph glyph-name="布" unicode="&#x5E03;" horiz-adv-x="247" d=" M70,-10 L57,-10 L57,90 Q39,68 18,45 Q12,53 8,57 Q57,106 86,161 L16,161 L16,174 L92,174 Q101,192 107,211 L122,209 Q120,204 116,194 Q111,180 108,174 L247,174 L247,161 L101,161 Q86,132 68,105 L133,105 L133,144 L147,144 L147,105 L225,105 L225,24 Q225,-3 197,-4 Q183,-4 167,-4 Q167,-1 166,6 Q167,1 165,8 Q168,8 175,8 Q185,7 191,7 Q212,6 211,27 L211,92 L147,92 L147,-29 L133,-29 L133,92 L70,92"/> 
            <glyph glyph-name="幕" unicode="&#x5E55;" horiz-adv-x="249" d=" M242,18 Q239,19 233,21 Q223,24 208,29 L208,7 Q209,-11 184,-12 Q172,-12 159,-12 L157,0 Q160,0 181,0 Q197,-1 196,11 L196,28 L134,28 L134,-30 L122,-30 L122,28 L60,28 L60,-14 L47,-14 L47,30 Q40,26 25,20 Q18,17 14,16 Q11,22 7,28 Q53,43 80,65 L15,65 L15,76 L93,76 Q102,85 109,94 L42,94 L42,162 L214,162 L214,94 L123,94 Q117,85 109,76 L242,76 L242,65 L168,65 Q198,38 249,31 Q248,30 247,28 Q244,24 242,18 M159,210 L172,210 L172,193 L244,193 L244,182 L172,182 L172,168 L159,168 L159,182 L98,182 L98,168 L85,168 L85,182 L13,182 L13,193 L85,193 L85,210 L98,210 L98,193 L159,193 M55,151 L55,133 L201,133 L201,151 M55,123 L55,105 L201,105 L201,123 M122,57 L134,57 L134,39 L186,39 Q168,49 153,65 L99,65 Q84,51 63,39 L122,39"/> 
            <glyph glyph-name="年" unicode="&#x5E74;" horiz-adv-x="250" d=" M22,115 Q17,121 11,125 Q47,160 68,211 L82,207 Q76,194 69,182 L239,182 L239,169 L150,169 L150,120 L234,120 L234,107 L150,107 L150,48 L250,48 L250,35 L150,35 L150,-31 L136,-31 L136,35 L7,35 L7,48 L48,48 L48,120 L136,120 L136,169 L62,169 Q46,141 22,115 M61,107 L61,48 L136,48 L136,107"/> 
            <glyph glyph-name="应" unicode="&#x5E94;" horiz-adv-x="247" d=" M127,207 L140,211 Q141,207 146,195 Q151,180 153,174 L244,174 L244,161 L48,161 L48,111 Q48,55 42,27 Q36,0 17,-28 Q14,-26 6,-20 Q24,7 29,31 Q35,56 35,106 L35,174 L139,174 Q133,192 127,207 M211,132 L225,128 Q199,38 184,0 L247,0 L247,-13 L53,-13 L53,0 L170,0 Q197,74 211,132 M68,122 L81,125 Q95,80 108,28 L95,25 Q82,76 68,122 M128,134 L141,136 Q146,114 155,72 Q160,51 162,40 L148,37 Q137,94 128,134"/> 
            <glyph glyph-name="度" unicode="&#x5EA6;" horiz-adv-x="246" d=" M240,-27 Q181,-17 145,0 Q114,-16 52,-30 Q51,-29 50,-26 Q48,-23 44,-17 Q90,-9 131,7 Q102,25 81,53 L65,53 L65,65 L215,65 L215,52 Q186,21 159,6 Q197,-7 246,-13 Q245,-15 243,-19 Q241,-25 240,-27 M184,161 L197,161 L197,139 L243,139 L243,127 L197,127 L197,89 L94,89 L94,127 L57,127 L57,139 L94,139 L94,161 L107,161 L107,139 L184,139 M131,208 L144,211 Q148,198 151,182 L246,182 L246,170 L46,170 L46,98 Q46,49 40,24 Q35,-1 17,-29 Q12,-25 6,-20 Q23,6 27,28 Q32,49 32,100 L32,182 L137,182 Q136,187 134,195 Q132,204 131,208 M198,53 L97,53 Q122,26 145,14 Q175,29 198,53 M107,127 L107,100 L184,100 L184,127"/> 
            <glyph glyph-name="异" unicode="&#x5F02;" horiz-adv-x="247" d=" M210,134 L49,134 L49,120 Q48,98 71,99 L204,99 Q225,98 228,114 Q229,116 230,121 Q232,132 233,138 Q235,138 238,136 Q243,135 246,134 Q243,118 240,108 Q235,86 206,87 L67,87 Q35,85 36,119 L36,198 L210,198 M49,186 L49,146 L197,146 L197,186 M8,44 L70,44 Q70,48 70,56 Q71,67 71,74 L85,74 Q85,69 84,59 Q84,49 83,44 L173,44 L173,74 L187,74 L187,44 L247,44 L247,32 L187,32 L187,-30 L173,-30 L173,32 L82,32 Q79,-9 28,-30 Q21,-21 17,-18 Q68,1 68,32 L8,32"/> 
            <glyph glyph-name="引" unicode="&#x5F15;" horiz-adv-x="225" d=" M38,80 L143,80 Q142,44 138,15 Q136,-26 91,-24 Q72,-25 48,-25 Q47,-17 44,-9 Q68,-10 90,-10 Q123,-12 124,17 Q126,27 128,60 Q128,65 128,67 L22,67 L35,138 L127,138 L127,185 L21,185 L21,198 L141,198 L141,125 L46,125 M211,209 L225,209 L225,-29 L211,-29"/> 
            <glyph glyph-name="强" unicode="&#x5F3A;" horiz-adv-x="250" d=" M101,103 L162,103 L162,135 L110,135 L110,197 L226,197 L226,135 L175,135 L175,103 L236,103 L236,36 L175,36 L175,-2 Q199,-2 220,0 Q213,8 205,20 L217,26 Q219,23 224,16 Q240,-6 250,-22 L238,-29 Q234,-20 229,-13 Q163,-16 88,-21 L86,-6 Q123,-5 162,-3 L162,36 L101,36 M31,123 L26,77 L79,77 Q78,34 75,8 Q74,-26 39,-24 Q29,-25 19,-25 Q18,-18 15,-10 Q27,-11 38,-11 Q61,-12 62,9 Q62,13 63,22 Q65,49 65,65 L12,65 L19,135 L69,135 L69,184 L13,184 L13,196 L82,196 L82,123 M123,185 L123,147 L213,147 L213,185 M114,91 L114,48 L162,48 L162,91 M223,91 L175,91 L175,48 L223,48"/> 
            <glyph glyph-name="录" unicode="&#x5F55;" horiz-adv-x="249" d=" M13,-4 L7,8 Q58,25 123,54 L123,98 L9,98 L9,110 L195,110 L195,141 L41,141 L41,153 L195,153 L195,184 L37,184 L37,196 L209,196 L209,110 L248,110 L248,98 L137,98 L137,93 Q151,63 165,48 Q203,74 218,84 L228,74 Q196,53 173,39 Q195,18 249,2 Q243,-4 241,-8 Q161,13 137,69 L137,4 Q139,-24 109,-24 Q103,-25 81,-25 Q80,-16 78,-11 Q88,-11 103,-11 Q124,-12 123,7 L123,40 Q109,35 68,18 Q27,1 13,-4 M74,45 Q54,60 30,75 L39,85 Q71,65 84,56"/> 
            <glyph glyph-name="形" unicode="&#x5F62;" horiz-adv-x="249" d=" M9,102 L43,102 L43,179 L17,179 L17,192 L148,192 L148,179 L117,179 L117,102 L156,102 L156,90 L117,90 L117,-28 L104,-28 L104,90 L57,90 Q59,9 16,-28 Q13,-26 5,-18 Q28,4 35,25 Q43,46 43,90 L9,90 M57,179 L57,102 L104,102 L104,179 M136,-17 Q196,8 238,62 L249,54 Q207,0 145,-29 Q142,-26 136,-17 M151,70 Q203,98 232,133 L243,124 Q211,88 160,59 Q154,67 151,70 M148,146 Q197,170 228,206 L238,197 Q206,161 157,134 Q155,139 148,146"/> 
            <glyph glyph-name="彩" unicode="&#x5F69;" horiz-adv-x="248" d=" M16,-6 Q15,-4 11,0 Q8,2 7,4 Q45,33 69,81 L15,81 L15,93 L70,93 L70,113 L83,113 L83,93 L135,93 L135,81 L83,81 L83,50 L89,57 Q111,42 138,22 L129,11 Q104,32 83,47 L83,-29 L70,-29 L70,62 Q51,22 16,-6 M132,-29 Q131,-27 127,-22 Q125,-18 124,-16 Q197,10 237,64 L248,56 Q206,1 132,-29 M15,179 Q14,185 12,191 Q87,194 137,199 L140,187 Q116,185 65,182 Q32,180 15,179 M147,69 Q200,96 229,132 L240,123 Q205,84 157,58 Q156,60 152,64 Q149,68 147,69 M144,139 Q191,162 223,199 L233,190 Q202,155 153,127 Q150,133 144,139 M113,114 L101,121 Q120,148 129,168 L141,162 Q136,153 125,135 Q118,122 113,114 M14,156 L26,161 Q43,131 48,120 L36,114 Q26,136 14,156 M62,168 L74,172 Q80,156 89,130 L77,126 Q71,148 62,168"/> 
            <glyph glyph-name="影" unicode="&#x5F71;" horiz-adv-x="249" d=" M21,199 L139,199 L139,129 L21,129 M25,78 L136,78 L136,35 L89,35 L89,-4 Q90,-27 66,-28 Q53,-28 45,-28 Q44,-26 43,-20 Q42,-17 42,-16 Q52,-16 61,-16 Q78,-17 77,-3 L77,35 L25,35 M37,68 L37,45 L124,45 L124,68 M33,188 L33,169 L127,169 L127,188 M149,-30 Q143,-22 140,-19 Q200,11 238,65 L249,57 Q212,4 149,-30 M33,158 L33,139 L127,139 L127,158 M71,122 L83,125 Q87,116 90,107 L156,107 L156,97 L7,97 L7,107 L77,107 Q76,109 75,112 Q72,118 71,122 M167,60 Q166,61 163,65 Q159,69 157,71 Q200,99 231,141 L242,132 Q208,89 167,60 M164,134 Q158,141 154,144 Q194,169 221,205 L232,197 Q203,160 164,134 M17,-19 L8,-10 Q29,6 45,24 L55,16 Q47,7 30,-7 Q22,-15 17,-19 M105,16 L113,25 Q120,20 132,9 Q140,3 144,0 L135,-8 Q127,-1 113,10 Q108,14 105,16"/> 
            <glyph glyph-name="很" unicode="&#x5F88;" horiz-adv-x="247" d=" M99,196 L228,196 L228,85 L158,85 Q167,54 179,38 Q217,60 234,72 L243,62 Q214,43 186,28 Q203,7 247,-13 Q243,-19 238,-25 Q160,10 145,85 L113,85 L113,-6 Q120,-2 138,6 Q153,15 159,18 Q160,16 161,12 Q162,7 162,5 Q149,0 115,-20 Q114,-21 113,-21 Q105,-25 102,-29 L92,-16 Q99,-8 99,5 M113,97 L214,97 L214,135 L113,135 M113,185 L113,147 L214,147 L214,185 M15,51 Q14,52 13,55 Q8,62 7,63 Q43,94 70,145 L82,138 Q70,118 58,100 L58,-29 L45,-29 L45,83 Q32,66 15,51 M19,128 Q16,134 11,140 Q44,167 70,210 L82,202 Q54,157 19,128"/> 
            <glyph glyph-name="得" unicode="&#x5F97;" horiz-adv-x="249" d=" M104,199 L229,199 L229,111 L104,111 M90,87 L244,87 L244,75 L213,75 L213,50 L249,50 L249,38 L213,38 L213,1 Q214,-26 184,-25 Q180,-25 170,-25 Q157,-26 151,-26 Q150,-18 147,-12 Q154,-12 167,-13 Q177,-13 181,-13 Q201,-14 200,1 L200,38 L80,38 L80,50 L200,50 L200,75 L90,75 M13,53 Q12,55 10,60 Q8,64 7,66 Q44,103 68,147 L80,141 Q68,121 56,103 L56,-29 L43,-29 L43,86 Q28,68 13,53 M117,187 L117,161 L216,161 L216,187 M117,149 L117,123 L216,123 L216,149 M18,133 Q15,139 11,144 Q46,172 70,210 L82,203 Q55,164 18,133 M102,23 L112,31 Q127,18 140,3 L129,-5 Q113,12 102,23"/> 
            <glyph glyph-name="快" unicode="&#x5FEB;" horiz-adv-x="248" d=" M147,209 L161,209 Q161,185 161,165 L222,165 L222,86 L247,86 L247,73 L165,73 Q186,13 248,-12 Q245,-15 241,-21 Q239,-24 238,-25 Q172,9 154,69 Q144,13 80,-29 Q79,-27 75,-23 Q72,-19 70,-17 Q132,21 142,73 L81,73 L81,86 L144,86 Q147,104 147,153 L100,153 L100,165 L147,165 Q147,183 147,209 M44,209 L57,209 L57,159 L65,165 Q67,162 71,157 Q87,139 94,129 L83,121 Q69,141 57,156 L57,-29 L44,-29 M209,153 L161,153 Q161,107 158,86 L209,86 M17,151 L29,149 Q26,120 19,91 Q13,93 6,93 Q11,116 17,151"/> 
            <glyph glyph-name="性" unicode="&#x6027;" horiz-adv-x="249" d=" M163,210 L176,210 L176,154 L242,154 L242,142 L176,142 L176,77 L237,77 L237,64 L176,64 L176,-5 L249,-5 L249,-18 L81,-18 L81,-5 L163,-5 L163,64 L98,64 L98,77 L163,77 L163,142 L117,142 Q109,119 98,98 Q91,102 85,105 Q108,147 118,193 L132,190 Q130,183 126,170 Q123,159 122,154 L163,154 M42,210 L56,210 L56,-30 L42,-30 M17,152 L30,150 Q29,146 28,136 Q26,123 20,92 Q14,94 7,94 Q14,124 17,152 M59,161 L69,167 Q80,153 90,135 L79,128 Q76,134 70,143 Q63,155 59,161"/> 
            <glyph glyph-name="惊" unicode="&#x60CA;" horiz-adv-x="246" d=" M101,136 L226,136 L226,66 L170,66 L170,-1 Q171,-26 145,-27 Q135,-27 120,-27 Q120,-21 117,-14 Q131,-14 140,-14 Q158,-15 157,-1 L157,66 L101,66 M114,124 L114,78 L212,78 L212,124 M40,209 L53,209 L53,158 L61,164 Q64,161 70,154 Q81,142 87,135 L77,127 Q75,130 70,136 Q59,149 53,156 L53,-29 L40,-29 M83,179 L159,179 Q155,195 150,207 L163,210 Q169,193 173,179 L246,179 L246,167 L83,167 M83,-16 Q78,-12 72,-7 Q93,11 114,46 L125,39 Q109,11 83,-16 M195,38 L205,45 Q211,38 222,24 Q238,3 246,-5 L234,-13 Q214,14 195,38 M18,155 L29,153 Q25,129 18,93 Q12,95 6,95 Q10,113 16,143 Q17,151 18,155"/> 
            <glyph glyph-name="感" unicode="&#x611F;" horiz-adv-x="250" d=" M150,44 Q148,47 141,54 Q162,69 177,84 Q163,114 159,164 L49,164 L49,138 Q51,77 22,41 Q18,45 12,49 Q38,83 36,138 L36,176 L158,176 Q157,181 157,193 Q156,203 156,209 L169,209 Q169,191 171,176 L247,176 L247,164 L172,164 Q176,125 186,95 Q202,114 217,147 L229,142 Q210,102 192,82 Q204,59 216,59 Q225,59 230,71 Q235,85 238,100 Q240,99 246,97 Q248,96 250,95 Q250,93 249,89 Q245,75 243,69 Q235,46 216,46 Q197,47 183,72 Q168,57 150,44 M67,112 L140,112 L140,61 L67,61 M69,38 L82,38 L82,8 Q80,-13 106,-11 L150,-11 Q174,-12 177,3 Q179,7 181,23 Q181,21 182,27 L195,22 Q195,20 194,15 Q193,7 190,0 Q185,-24 154,-23 L102,-23 Q67,-25 69,7 M80,101 L80,72 L127,72 L127,101 M61,144 L146,144 L146,133 L61,133 M34,37 L46,32 Q40,19 27,-4 Q23,-12 21,-15 L8,-9 Q22,10 34,37 M208,29 L219,36 Q225,28 223,31 Q242,4 249,-4 L237,-11 Q232,-5 223,8 Q213,22 208,29 M109,42 L119,50 Q127,42 140,28 Q144,23 147,20 L137,11 Q122,29 109,42 M188,197 L197,206 Q200,203 208,196 Q218,188 221,185 L212,176 Q196,192 188,197"/> 
            <glyph glyph-name="成" unicode="&#x6210;" horiz-adv-x="249" d=" M145,210 L158,210 Q158,201 159,185 Q159,168 160,160 L247,160 L247,147 L161,147 Q165,80 175,45 Q197,74 217,120 L230,114 Q205,59 180,30 Q195,-14 214,-14 Q225,-14 230,1 Q235,20 236,33 Q237,32 240,31 Q243,30 249,28 Q246,9 242,-3 Q234,-28 214,-27 Q188,-28 170,18 Q154,0 122,-24 Q117,-19 112,-13 Q143,7 165,33 Q151,71 147,147 L47,147 L47,105 L118,105 Q118,76 115,36 Q115,0 82,1 Q75,0 60,0 Q59,7 57,15 Q69,14 80,14 Q102,13 102,35 Q102,39 103,46 Q104,74 104,92 L47,92 Q46,45 40,22 Q35,0 17,-29 Q16,-28 12,-25 Q8,-21 6,-20 Q24,7 28,30 Q33,51 33,106 L33,160 L146,160 Q146,167 146,183 Q145,201 145,210 M180,194 L188,203 Q212,188 226,178 L217,168 Q215,170 210,173 Q191,187 180,194"/> 
            <glyph glyph-name="我" unicode="&#x6211;" horiz-adv-x="250" d=" M10,47 L6,61 Q9,61 14,62 Q43,67 62,70 L62,122 L6,122 L6,134 L62,134 L62,177 Q56,176 44,175 Q23,173 17,172 Q16,176 14,182 Q13,184 13,185 Q63,190 113,198 L117,186 Q114,185 107,184 Q99,183 76,179 L76,134 L147,134 Q145,170 145,210 L159,210 Q159,170 161,134 L250,134 L250,122 L161,122 Q162,115 163,101 Q165,91 165,86 Q168,63 172,48 Q198,71 220,102 L232,94 Q200,52 176,34 Q180,21 186,11 Q198,-13 214,-13 Q225,-13 229,1 Q234,15 236,34 Q237,33 240,32 Q243,31 249,29 Q246,11 241,-5 Q235,-27 214,-27 Q190,-28 173,6 Q168,14 165,24 Q139,4 102,-13 Q96,-4 93,-2 Q128,12 160,38 Q154,59 151,84 Q151,88 150,97 Q148,113 148,122 L76,122 L76,73 Q88,75 111,80 Q121,82 126,83 Q126,77 126,70 Q119,69 104,65 Q86,62 76,60 L76,2 Q77,-23 51,-24 Q44,-25 22,-25 Q21,-17 19,-11 Q30,-11 46,-11 Q63,-12 62,2 L62,57 Q58,56 49,55 Q38,53 10,47 M178,186 L188,195 Q207,180 229,159 L219,150 Q217,152 209,159 Q186,179 178,186"/> 
            <glyph glyph-name="户" unicode="&#x6237;" horiz-adv-x="229" d=" M116,205 L128,211 Q139,195 150,178 L138,173 L229,173 L229,67 L215,67 L215,80 L51,80 Q50,13 18,-29 Q15,-26 6,-20 Q25,7 31,31 Q37,55 37,103 L37,173 L135,173 Q132,180 122,196 Q118,202 116,205 M51,160 L51,103 L51,93 L215,93 L215,160"/> 
            <glyph glyph-name="手" unicode="&#x624B;" horiz-adv-x="249" d=" M225,185 Q212,185 184,183 Q152,182 136,181 L136,129 L227,129 L227,117 L136,117 L136,65 L249,65 L249,52 L136,52 L136,4 Q137,-25 103,-25 Q82,-25 66,-25 Q65,-19 62,-10 Q74,-11 100,-11 Q123,-12 122,7 L122,52 L8,52 L8,65 L122,65 L122,117 L26,117 L26,129 L122,129 L122,180 Q69,179 24,177 Q24,184 22,190 Q133,192 222,198"/> 
            <glyph glyph-name="才" unicode="&#x624D;" horiz-adv-x="247" d=" M18,0 Q14,5 8,10 Q107,62 151,144 L15,144 L15,158 L167,158 L167,209 L182,209 L182,158 L247,158 L247,144 L182,144 L182,15 Q183,-23 144,-22 Q136,-23 107,-23 Q107,-21 106,-15 Q105,-10 104,-7 Q117,-8 140,-8 Q169,-10 167,17 L167,144 L165,144 Q117,50 18,0"/> 
            <glyph glyph-name="技" unicode="&#x6280;" horiz-adv-x="248" d=" M103,100 L103,112 L164,112 L164,156 L100,156 L100,169 L164,169 L164,209 L177,209 L177,169 L245,169 L245,156 L177,156 L177,112 L230,112 L230,100 Q210,47 179,19 Q201,2 248,-15 Q246,-17 241,-25 Q239,-27 239,-28 Q194,-9 169,10 Q140,-11 89,-30 Q87,-25 80,-18 Q138,3 159,19 Q131,48 115,100 M6,78 Q20,81 44,87 L44,147 L9,147 L9,159 L44,159 L44,208 L57,208 L57,159 L87,159 L87,147 L57,147 L57,91 Q74,96 89,100 Q89,95 89,87 Q86,86 78,84 Q65,80 57,78 L57,1 Q58,-26 32,-26 Q20,-26 14,-26 Q14,-25 13,-22 Q11,-15 10,-12 Q18,-13 29,-13 Q45,-14 44,1 L44,74 Q26,69 8,63 M216,100 L130,100 Q145,53 169,28 Q198,52 216,100"/> 
            <glyph glyph-name="抖" unicode="&#x6296;" horiz-adv-x="250" d=" M191,209 L205,209 L205,61 L248,67 L250,54 L205,48 L205,-29 L191,-29 L191,46 L87,33 L85,47 L191,60 M8,62 L6,77 Q12,79 25,82 Q37,86 43,87 L43,148 L10,148 L10,161 L43,161 L43,208 L57,208 L57,161 L86,161 L86,148 L57,148 L57,91 Q61,92 69,95 Q82,99 89,101 Q88,95 88,87 Q73,83 57,78 L57,0 Q58,-26 31,-26 Q19,-26 13,-26 Q12,-18 10,-12 Q13,-12 20,-13 Q26,-13 29,-13 Q44,-14 43,0 L43,74 Q26,68 8,62 M148,82 Q136,92 114,108 Q105,115 101,118 L109,127 Q120,120 140,105 Q152,97 158,93 M159,144 Q132,166 113,179 L122,189 Q134,180 156,164 Q164,157 169,154"/> 
            <glyph glyph-name="护" unicode="&#x62A4;" horiz-adv-x="237" d=" M152,203 L164,209 Q169,202 180,186 Q183,180 185,178 L173,172 L237,172 L237,65 L223,65 L223,77 L121,77 Q120,13 87,-28 Q86,-27 84,-26 Q78,-21 75,-20 Q96,8 102,34 Q108,59 108,110 L108,172 L172,172 Q162,188 152,203 M121,159 L121,109 Q121,99 121,90 L223,90 L223,159 M8,63 L6,77 Q10,78 20,81 Q36,85 44,87 L44,150 L11,150 L11,162 L44,162 L44,209 L57,209 L57,162 L89,162 L89,150 L57,150 L57,91 Q74,96 90,100 Q90,95 91,87 Q86,86 74,83 Q63,80 57,78 L57,0 Q58,-26 32,-25 Q22,-25 14,-25 Q14,-23 13,-19 Q12,-13 11,-11 Q13,-11 18,-11 Q26,-12 30,-12 Q45,-13 44,1 L44,73 Q37,71 24,67 Q13,64 8,63"/> 
            <glyph glyph-name="择" unicode="&#x62E9;" horiz-adv-x="250" d=" M93,184 L93,196 L232,196 L232,183 Q210,150 182,132 Q201,121 248,113 Q244,106 242,99 Q196,109 168,124 Q140,109 94,97 Q93,103 88,110 Q122,117 155,132 Q131,148 110,184 M8,61 L7,76 Q25,80 41,84 L41,148 L8,148 L8,161 L41,161 L41,209 L55,209 L55,161 L87,161 L87,148 L55,148 L55,88 Q72,93 84,97 Q84,92 85,83 Q74,81 55,75 L55,0 Q57,-26 30,-26 Q23,-27 10,-27 Q10,-23 9,-18 Q8,-14 8,-13 Q20,-13 28,-13 Q42,-14 41,0 L41,71 Q34,69 19,64 Q12,62 8,61 M79,26 L161,26 L161,61 L95,61 L95,73 L161,73 L161,102 L174,102 L174,73 L238,73 L238,61 L174,61 L174,26 L250,26 L250,14 L174,14 L174,-28 L161,-28 L161,14 L79,14 M218,184 L124,184 Q145,153 168,139 Q194,155 218,184"/> 
            <glyph glyph-name="换" unicode="&#x6362;" horiz-adv-x="249" d=" M94,127 Q89,132 84,137 Q118,170 136,211 L150,208 Q148,204 144,196 Q139,188 137,184 L213,184 L213,171 L184,133 L230,133 L230,57 L249,57 L249,45 L171,45 Q192,1 249,-15 Q248,-17 245,-22 Q242,-26 240,-28 Q179,-6 163,36 Q153,-4 78,-30 Q75,-24 70,-17 Q143,5 153,45 L77,45 L77,57 L99,57 L99,132 Q96,130 94,127 M7,63 L6,77 Q9,78 15,80 Q21,81 39,87 L39,150 L10,150 L10,162 L39,162 L39,209 L52,209 L52,162 L80,162 L80,150 L52,150 L52,91 Q59,93 72,98 Q77,100 79,101 Q79,98 80,93 Q80,89 80,87 Q76,86 66,83 Q57,80 52,78 L52,-2 Q53,-26 29,-27 Q19,-27 9,-27 Q9,-19 7,-13 Q18,-14 25,-14 Q40,-15 39,0 L39,74 Q33,72 21,68 Q12,65 7,63 M217,121 L171,121 L171,84 Q171,73 169,57 L217,57 M112,121 L112,57 L156,57 Q156,58 156,59 Q158,74 158,84 L158,121 M198,172 L129,172 Q119,157 99,133 L168,133"/> 
            <glyph glyph-name="排" unicode="&#x6392;" horiz-adv-x="249" d=" M178,210 L192,210 L192,164 L245,164 L245,151 L192,151 L192,101 L239,101 L239,89 L192,89 L192,38 L249,38 L249,26 L192,26 L192,-29 L178,-29 M86,164 L129,164 L129,210 L142,210 L142,-29 L129,-29 L129,26 L75,26 L75,38 L129,38 L129,89 L89,89 L89,101 L129,101 L129,151 L86,151 M9,65 L6,79 Q13,81 27,86 Q35,89 39,90 L39,149 L9,149 L9,161 L39,161 L39,210 L52,210 L52,161 L76,161 L76,149 L52,149 L52,95 Q64,101 76,105 Q76,99 77,92 Q73,91 64,87 Q56,84 52,83 L52,-3 Q53,-23 30,-24 Q20,-24 12,-24 Q12,-22 11,-18 Q10,-13 9,-11 Q13,-11 19,-12 Q25,-12 28,-12 Q40,-12 39,-2 L39,77 Q17,69 9,65"/> 
            <glyph glyph-name="探" unicode="&#x63A2;" horiz-adv-x="252" d=" M82,-11 Q79,-5 73,0 Q121,25 152,75 L88,75 L88,88 L159,88 L159,122 L172,122 L172,88 L247,88 L247,75 L179,75 Q206,26 252,4 Q251,3 249,0 Q245,-3 243,-7 Q198,18 172,68 L172,-29 L159,-29 L159,69 Q133,20 82,-11 M9,61 L6,75 Q11,76 20,79 Q33,83 40,85 L40,144 L9,144 L9,156 L40,156 L40,209 L54,209 L54,156 L78,156 L78,144 L54,144 L54,89 Q66,94 78,97 Q78,91 79,84 Q67,81 54,76 L54,-1 Q55,-26 29,-26 Q18,-26 11,-26 Q11,-24 10,-19 Q9,-14 8,-12 Q10,-12 16,-12 Q24,-13 28,-13 Q41,-14 40,0 L40,72 Q35,70 25,67 Q14,63 9,61 M92,192 L239,192 L239,151 L227,151 L227,180 L105,180 L105,151 L92,151 M140,160 L151,152 Q124,121 104,102 Q103,103 101,105 Q100,107 94,112 Q124,138 140,160 M179,152 L188,161 Q216,137 238,117 L228,107 Q204,131 179,152"/> 
            <glyph glyph-name="提" unicode="&#x63D0;" horiz-adv-x="250" d=" M102,197 L225,197 L225,111 L102,111 M76,-29 Q75,-28 73,-26 Q71,-24 65,-21 Q99,9 104,62 L117,60 Q116,56 115,49 Q113,39 112,34 Q128,-3 159,-6 L159,74 L80,74 L80,86 L247,86 L247,74 L172,74 L172,41 L237,41 L237,30 L172,30 L172,-7 Q175,-7 178,-7 Q212,-9 250,-7 Q249,-10 247,-16 Q246,-19 246,-20 Q206,-20 172,-20 Q126,-19 107,17 Q98,-7 76,-29 M8,60 L6,74 Q11,76 21,81 Q35,87 42,90 L42,144 L9,144 L9,156 L42,156 L42,209 L55,209 L55,156 L83,156 L83,144 L55,144 L55,96 Q69,102 81,109 Q82,107 82,102 Q83,97 83,95 Q81,94 77,92 Q69,89 55,82 L55,0 Q56,-26 32,-26 Q26,-27 14,-27 Q12,-15 12,-13 Q18,-13 29,-13 Q43,-14 42,0 L42,76 Q35,73 21,66 Q12,62 8,60 M116,148 L116,122 L211,122 L211,148 M116,186 L116,160 L211,160 L211,186"/> 
            <glyph glyph-name="握" unicode="&#x63E1;" horiz-adv-x="248" d=" M100,111 Q100,54 94,28 Q89,0 70,-28 Q69,-27 64,-23 Q60,-21 59,-20 Q77,7 82,31 Q88,55 88,106 L88,197 L238,197 L238,145 L100,145 M10,64 L6,77 Q12,79 22,84 Q33,88 38,90 L38,147 L9,147 L9,159 L38,159 L38,209 L51,209 L51,159 L76,159 L76,147 L51,147 L51,95 Q56,98 66,102 Q73,105 76,106 Q76,96 77,93 Q63,87 51,82 L51,1 Q52,-24 28,-24 Q21,-25 12,-25 Q12,-21 11,-15 Q10,-12 10,-11 Q15,-11 26,-11 Q39,-12 38,0 L38,76 Q25,70 10,64 M234,51 Q230,57 222,64 Q138,63 118,60 L114,73 Q136,86 156,112 L112,112 L112,123 L242,123 L242,112 L174,112 Q144,82 133,73 Q147,73 173,74 Q199,74 212,74 Q208,78 202,85 Q196,91 194,93 L203,100 Q230,75 245,59 M100,186 L100,155 L225,155 L225,186 M111,33 L167,33 L167,53 L180,53 L180,33 L234,33 L234,22 L180,22 L180,-6 L248,-6 L248,-18 L97,-18 L97,-6 L167,-6 L167,22 L111,22"/> 
            <glyph glyph-name="播" unicode="&#x64AD;" horiz-adv-x="249" d=" M94,73 L231,73 L231,-29 L218,-29 L218,-16 L106,-16 L106,-29 L94,-29 M80,70 Q76,77 71,81 Q116,96 143,124 L83,124 L83,135 L155,135 L155,182 Q145,181 123,181 Q102,180 91,180 Q90,187 88,191 Q187,195 232,198 L235,187 Q209,185 168,183 L168,135 L247,135 L247,124 L180,124 Q202,100 249,85 Q245,81 241,73 Q189,94 168,124 L168,85 L155,85 L155,124 Q129,90 80,70 M40,209 L53,209 L53,159 L78,159 L78,147 L53,147 L53,95 Q57,97 66,101 Q72,104 75,105 Q75,99 77,92 Q68,89 53,82 L53,0 Q55,-26 28,-26 Q21,-27 12,-27 Q12,-18 10,-14 Q16,-14 26,-14 Q41,-15 40,0 L40,77 Q35,75 25,71 Q14,66 9,64 L6,77 Q21,84 40,90 L40,147 L10,147 L10,159 L40,159 M169,23 L169,-5 L218,-5 L218,23 M106,23 L106,-5 L156,-5 L156,23 M218,62 L169,62 L169,34 L218,34 M106,62 L106,34 L156,34 L156,62 M197,142 L188,151 Q202,162 215,175 L224,167 Q219,162 197,142 M100,165 L109,173 Q124,160 135,151 L125,142 Q118,151 100,165"/> 
            <glyph glyph-name="操" unicode="&#x64CD;" horiz-adv-x="249" d=" M104,199 L217,199 L217,147 L104,147 M75,-22 Q71,-14 66,-10 Q110,5 146,40 L76,40 L76,52 L153,52 L153,71 L166,71 L166,52 L247,52 L247,40 L173,40 Q205,4 249,-7 Q248,-10 245,-15 Q243,-18 242,-20 Q189,0 166,35 L166,-29 L153,-29 L153,35 Q126,2 75,-22 M8,63 L7,77 Q12,79 23,83 Q33,86 37,88 L37,150 L9,150 L9,162 L37,162 L37,209 L49,209 L49,162 L77,162 L77,150 L49,150 L49,92 Q62,96 75,102 Q75,96 76,88 Q73,87 67,85 Q56,81 49,79 L49,-3 Q51,-26 27,-26 Q13,-26 9,-26 Q9,-23 8,-15 Q9,-20 7,-13 Q16,-14 25,-14 Q38,-15 37,-3 L37,74 Q23,69 8,63 M172,127 L236,127 L236,76 L172,76 M86,127 L148,127 L148,76 L86,76 M116,188 L116,158 L205,158 L205,188 M184,116 L184,87 L223,87 L223,116 M98,116 L98,87 L136,87 L136,116"/> 
            <glyph glyph-name="擎" unicode="&#x64CE;" horiz-adv-x="247" d=" M31,45 L125,45 L125,65 Q107,65 74,64 Q44,64 30,64 Q28,69 28,75 Q134,75 217,79 L220,68 Q178,66 138,66 L138,45 L222,45 L222,35 L138,35 L138,15 L247,15 L247,4 L138,4 L138,-1 Q139,-27 111,-27 Q95,-27 79,-27 Q79,-23 78,-17 Q77,-15 77,-14 Q92,-15 108,-15 Q127,-16 125,0 L125,4 L8,4 L8,15 L125,15 L125,35 L31,35 M144,135 Q143,136 140,140 Q137,143 136,144 Q163,171 179,209 L191,206 Q185,193 179,182 L247,182 L247,171 L228,171 Q219,134 202,118 Q218,107 246,98 Q243,95 239,87 Q209,97 193,110 Q176,97 146,87 Q142,93 138,97 Q171,108 184,118 Q170,133 161,155 Q154,145 144,135 M30,136 L95,136 L95,97 L104,97 Q117,96 118,112 Q119,123 119,152 L41,152 Q32,137 17,124 Q16,125 15,127 Q9,132 8,133 Q31,152 42,175 L53,171 Q50,165 47,161 L132,161 Q132,141 130,111 Q129,86 106,87 Q102,86 91,86 Q90,88 90,91 Q89,94 89,96 L30,96 M96,211 L109,211 L109,193 L145,193 L145,183 L109,183 L109,171 L96,171 L96,183 L64,183 L64,173 L52,173 L52,183 L16,183 L16,193 L52,193 L52,211 L64,211 L64,193 L96,193 M169,165 Q178,138 193,125 Q209,140 216,171 L173,171 Q170,168 169,165 M41,126 L41,105 L84,105 L84,126"/> 
            <glyph glyph-name="改" unicode="&#x6539;" horiz-adv-x="248" d=" M109,93 Q105,99 100,104 Q131,148 149,210 L163,207 Q156,185 147,165 L247,165 L247,152 L220,152 Q210,71 178,32 Q201,6 248,-14 Q245,-17 241,-24 Q240,-26 239,-27 Q191,-2 169,21 Q145,-4 91,-29 Q90,-27 86,-23 Q83,-19 81,-17 Q137,7 160,32 Q137,63 127,122 Q120,107 109,93 M16,190 L97,190 L97,92 L34,92 L34,5 Q42,10 66,22 Q89,35 97,39 Q97,37 100,25 Q57,4 35,-8 Q29,-11 23,-17 L13,-5 Q20,4 20,16 L20,105 L83,105 L83,177 L16,177 M142,152 Q139,146 136,140 Q146,77 169,43 Q198,78 206,152"/> 
            <glyph glyph-name="放" unicode="&#x653E;" horiz-adv-x="249" d=" M240,-28 Q202,-4 181,19 Q158,-6 117,-31 Q111,-22 108,-18 Q153,8 173,31 Q147,67 142,126 Q138,119 130,106 Q125,99 123,95 Q121,98 115,104 Q113,106 113,106 Q145,149 161,211 L175,208 Q168,184 158,162 L248,162 L248,149 L227,149 Q220,73 190,30 Q211,5 249,-14 Q248,-16 245,-21 Q241,-26 240,-28 M9,164 L124,164 L124,151 L53,151 Q53,132 51,104 L109,104 Q109,71 105,12 Q106,-22 72,-21 Q61,-21 53,-21 Q52,-15 50,-7 Q51,-7 56,-7 Q65,-8 69,-8 Q92,-9 92,11 Q95,52 95,92 L50,92 Q47,6 16,-29 Q15,-28 12,-25 Q7,-21 5,-19 Q36,15 37,99 Q39,135 39,151 L9,151 M181,42 Q207,77 214,149 L153,149 Q153,149 152,147 Q152,146 151,145 Q158,78 181,42 M56,207 L69,211 Q71,205 77,188 Q82,174 83,170 L70,166 Q65,182 56,207"/> 
            <glyph glyph-name="效" unicode="&#x6548;" horiz-adv-x="249" d=" M240,-27 Q201,0 186,23 Q168,-1 125,-30 Q124,-29 122,-27 Q117,-21 114,-19 Q160,9 177,35 Q159,65 148,121 Q144,114 139,106 Q131,114 129,115 Q157,156 169,210 L182,207 Q176,183 167,162 L246,162 L246,149 L227,149 Q219,75 194,34 Q210,9 249,-15 Q248,-17 243,-23 Q241,-26 240,-27 M30,78 L40,87 Q49,78 65,62 Q73,54 77,50 Q84,60 96,85 Q99,90 100,93 L112,88 Q101,61 86,40 Q104,22 122,3 L111,-6 Q93,11 78,28 Q59,2 15,-29 Q9,-21 5,-17 Q45,8 68,38 Q48,60 30,78 M162,149 Q162,148 160,145 Q159,142 158,140 Q169,78 186,48 Q208,83 213,149 M13,169 L133,169 L133,157 L13,157 M51,142 L62,134 Q41,106 19,84 L8,93 Q30,113 51,142 M121,89 Q103,113 83,134 L93,142 Q94,141 95,139 Q121,112 132,98 M57,204 L69,210 Q77,197 88,177 L76,171 Q75,173 73,177 Q62,196 57,204"/> 
            <glyph glyph-name="整" unicode="&#x6574;" horiz-adv-x="249" d=" M23,163 L69,163 L69,181 L13,181 L13,191 L69,191 L69,210 L80,210 L80,191 L134,191 L134,181 L80,181 L80,163 L126,163 L126,118 L80,118 L80,103 L85,110 Q108,101 128,90 L122,80 Q110,86 85,98 Q87,97 80,100 L80,73 L69,73 L69,108 Q45,83 13,71 Q12,72 9,77 Q7,80 6,81 Q43,95 67,118 L23,118 M18,62 L238,62 L238,51 L136,51 L136,25 L220,25 L220,14 L136,14 L136,-10 L249,-10 L249,-21 L8,-21 L8,-10 L53,-10 L53,34 L66,34 L66,-10 L124,-10 L124,51 L18,51 M141,73 Q137,81 133,85 Q164,95 182,110 Q166,126 157,156 Q154,150 147,140 Q143,134 141,131 Q140,132 136,135 Q132,137 130,138 Q157,174 168,211 L181,207 Q179,200 173,187 Q171,183 170,181 L246,181 L246,170 L232,170 Q220,129 201,109 Q216,97 249,88 Q243,79 241,75 Q210,87 192,101 Q176,87 141,73 M191,118 Q208,135 219,170 L165,170 Q165,170 164,169 Q176,134 191,118 M34,153 L34,128 L69,128 L69,153 M115,128 L115,153 L80,153 L80,128"/> 
            <glyph glyph-name="新" unicode="&#x65B0;" horiz-adv-x="249" d=" M114,-18 Q148,16 146,94 L146,189 Q187,191 238,198 L242,185 Q206,180 159,177 L159,113 L249,113 L249,101 L215,101 L215,-29 L201,-29 L201,101 L159,101 L159,93 Q161,13 126,-27 Q120,-23 114,-18 M64,103 L77,103 L77,77 L125,77 L125,65 L77,65 L77,1 Q78,-24 52,-25 Q43,-25 30,-25 Q30,-19 28,-12 Q38,-12 48,-12 Q64,-12 64,2 L64,65 L13,65 L13,77 L64,77 M7,122 L78,122 Q90,143 101,163 L113,157 Q103,139 92,122 L132,122 L132,111 L7,111 M57,207 L70,211 Q76,197 82,181 L125,181 L125,169 L14,169 L14,181 L68,181 Q62,197 57,207 M33,49 L44,44 Q29,11 19,-2 L8,2 Q16,15 33,49 M113,7 Q104,23 88,44 L98,51 Q106,42 118,23 Q122,18 124,15 M27,157 L38,163 Q48,149 58,131 L47,125 Q37,143 27,157"/> 
            <glyph glyph-name="旗" unicode="&#x65D7;" horiz-adv-x="248" d=" M127,157 L141,157 L141,138 L206,138 L206,158 L219,158 L219,138 L243,138 L243,126 L219,126 L219,32 L248,32 L248,20 L101,20 L101,32 L127,32 L127,126 L103,126 L103,138 L127,138 M9,169 L92,169 L92,158 L46,158 Q46,136 45,116 L89,116 Q88,55 86,13 Q85,-21 57,-20 Q50,-21 39,-21 Q39,-19 38,-14 Q37,-10 36,-7 Q38,-7 44,-7 Q50,-8 53,-8 Q72,-9 72,13 Q75,48 75,104 L45,104 Q45,94 44,86 Q43,12 16,-26 Q10,-22 5,-17 Q30,17 31,85 Q31,93 31,90 Q33,127 33,158 L9,158 M108,146 Q107,147 103,150 Q100,153 98,154 Q120,180 133,211 L145,207 Q143,201 137,190 Q135,187 134,186 L247,186 L247,174 L128,174 Q119,160 108,146 M141,56 L141,32 L206,32 L206,56 M141,91 L141,67 L206,67 L206,91 M141,126 L141,102 L206,102 L206,126 M151,13 L160,3 Q136,-13 109,-30 Q109,-29 108,-28 Q104,-22 101,-19 Q128,-6 151,13 M189,4 L197,13 Q201,10 209,6 Q232,-8 245,-18 L237,-29 Q207,-5 189,4 M40,207 L52,211 Q54,206 58,197 Q64,184 67,176 L54,172 Q49,190 40,207"/> 
            <glyph glyph-name="日" unicode="&#x65E5;" horiz-adv-x="214" d=" M42,193 L214,193 L214,-27 L200,-27 L200,-8 L56,-8 L56,-27 L42,-27 M56,87 L56,3 L200,3 L200,87 M56,180 L56,100 L200,100 L200,180"/> 
            <glyph glyph-name="旧" unicode="&#x65E7;" horiz-adv-x="234" d=" M92,195 L234,195 L234,-27 L220,-27 L220,-5 L106,-5 L106,-27 L92,-27 M106,90 L106,6 L220,6 L220,90 M106,182 L106,102 L220,102 L220,182 M28,200 L42,200 L42,-29 L28,-29"/> 
            <glyph glyph-name="时" unicode="&#x65F6;" horiz-adv-x="249" d=" M17,186 L97,186 L97,-11 L83,-11 L83,9 L30,9 L30,-14 L17,-14 M201,210 L214,210 L214,154 L249,154 L249,142 L214,142 L214,6 Q215,-24 181,-25 Q166,-25 145,-25 Q144,-17 142,-11 Q157,-11 178,-11 Q202,-12 201,9 L201,142 L111,142 L111,154 L201,154 M30,92 L30,22 L83,22 L83,92 M30,174 L30,104 L83,104 L83,174 M150,50 Q140,72 122,105 L133,111 Q135,107 139,100 Q155,73 162,57"/> 
            <glyph glyph-name="明" unicode="&#x660E;" horiz-adv-x="236" d=" M200,-14 Q222,-15 221,3 L221,54 L139,54 Q133,8 92,-30 Q86,-24 80,-20 Q110,6 119,32 Q129,57 129,112 L129,198 L234,198 L234,2 Q236,-27 202,-27 Q186,-28 169,-28 Q169,-26 168,-23 Q167,-17 166,-13 Q179,-14 200,-14 M22,190 L96,190 L96,25 L35,25 L35,3 L22,3 M142,112 Q143,85 140,66 L221,66 L221,120 L142,120 M142,185 L142,132 L221,132 L221,185 M35,37 L83,37 L83,102 L35,102 M35,177 L35,114 L83,114 L83,177"/> 
            <glyph glyph-name="昨" unicode="&#x6628;" horiz-adv-x="248" d=" M19,186 L88,186 L88,-9 L75,-9 L75,6 L33,6 L33,-15 L19,-15 M104,110 Q99,113 93,118 Q123,160 141,210 L155,206 Q147,187 138,169 L248,169 L248,156 L161,156 L161,107 L241,107 L241,94 L161,94 L161,44 L245,44 L245,31 L161,31 L161,-29 L147,-29 L147,156 L132,156 Q119,132 104,110 M33,90 L33,18 L75,18 L75,90 M33,174 L33,102 L75,102 L75,174"/> 
            <glyph glyph-name="是" unicode="&#x662F;" horiz-adv-x="249" d=" M46,198 L210,198 L210,110 L46,110 M56,62 L69,60 Q68,57 67,51 Q65,43 64,39 Q84,0 126,-4 L126,72 L11,72 L11,84 L246,84 L246,72 L139,72 L139,40 L229,40 L229,29 L139,29 L139,-5 Q142,-5 143,-5 Q179,-6 249,-6 Q246,-11 245,-20 Q201,-20 143,-18 Q84,-19 59,24 Q48,-6 15,-30 Q14,-29 11,-26 Q8,-22 6,-20 Q49,9 56,62 M59,149 L59,122 L196,122 L196,149 M59,187 L59,160 L196,160 L196,187"/> 
            <glyph glyph-name="显" unicode="&#x663E;" horiz-adv-x="247" d=" M38,198 L218,198 L218,97 L38,97 M148,86 L162,86 L162,-7 L247,-7 L247,-20 L9,-20 L9,-7 L92,-7 L92,86 L106,86 L106,-7 L148,-7 M51,142 L51,109 L204,109 L204,142 M51,186 L51,154 L204,154 L204,186 M185,24 Q206,51 222,76 L234,69 Q208,30 197,16 M24,70 L35,76 Q50,54 72,23 L59,16 Q42,44 24,70"/> 
            <glyph glyph-name="景" unicode="&#x666F;" horiz-adv-x="248" d=" M34,199 L222,199 L222,128 L34,128 M41,75 L217,75 L217,30 L138,30 L138,-1 Q139,-25 113,-26 Q106,-26 89,-26 Q89,-19 86,-12 Q98,-13 109,-13 Q126,-14 125,0 L125,30 L41,30 M54,64 L54,40 L204,40 L204,64 M47,159 L47,138 L209,138 L209,159 M47,188 L47,169 L209,169 L209,188 M119,123 L131,127 Q132,124 135,116 Q137,109 138,105 L248,105 L248,94 L8,94 L8,105 L125,105 Q122,114 119,123 M86,18 L93,7 Q64,-6 16,-26 Q13,-20 8,-14 Q50,0 86,18 M163,6 L170,17 Q175,15 184,12 Q223,0 247,-11 L241,-22 Q209,-8 163,6"/> 
            <glyph glyph-name="晰" unicode="&#x6670;" horiz-adv-x="247" d=" M17,188 L72,188 L72,-15 L60,-15 L60,3 L30,3 L30,-17 L17,-17 M138,-17 Q156,7 161,33 Q167,58 167,112 L167,188 Q206,190 237,198 L243,185 Q214,180 179,176 L179,123 L247,123 L247,111 L225,111 L225,-27 L212,-27 L212,111 L179,111 Q179,54 173,27 Q167,0 148,-27 Q145,-22 138,-17 M84,39 Q79,49 76,52 Q101,89 113,145 L113,146 L87,146 L87,158 L113,158 L113,207 L125,207 L125,158 L152,158 L152,146 L125,146 L125,102 L133,109 Q146,98 159,83 L150,75 Q147,78 142,84 Q132,94 125,100 L125,-29 L113,-29 L113,118 Q104,72 84,39 M30,91 L30,15 L60,15 L60,91 M30,177 L30,102 L60,102 L60,177"/> 
            <glyph glyph-name="暗" unicode="&#x6697;" horiz-adv-x="248" d=" M113,83 L229,83 L229,-29 L216,-29 L216,-16 L126,-16 L126,-29 L113,-29 M19,185 L83,185 L83,0 L70,0 L70,11 L32,11 L32,-6 L19,-6 M126,71 L126,38 L216,38 L216,71 M126,27 L126,-4 L216,-4 L216,27 M32,92 L32,23 L70,23 L70,92 M32,173 L32,104 L70,104 L70,173 M95,122 L183,122 Q186,126 191,133 Q204,152 210,162 L222,155 Q212,140 197,122 L248,122 L248,110 L95,110 M158,206 L169,210 Q176,198 182,185 L171,180 L239,180 L239,169 L104,169 L104,180 L170,180 Q166,192 158,206 M123,156 L133,162 Q134,161 135,159 Q144,149 155,132 L144,125 Q134,142 123,156"/> 
            <glyph glyph-name="曲" unicode="&#x66F2;" horiz-adv-x="231" d=" M154,210 L167,210 L167,168 L231,168 L231,-29 L218,-29 L218,-12 L38,-12 L38,-29 L25,-29 L25,168 L89,168 L89,210 L102,210 L102,168 L154,168 M38,72 L38,0 L89,0 L89,72 M167,72 L167,0 L218,0 L218,72 M102,72 L102,0 L154,0 L154,72 M218,156 L167,156 L167,85 L218,85 M38,156 L38,85 L89,85 L89,156 M102,156 L102,85 L154,85 L154,156"/> 
            <glyph glyph-name="更" unicode="&#x66F4;" horiz-adv-x="248" d=" M16,-31 Q13,-24 9,-18 Q67,-6 87,5 Q73,13 47,36 Q44,39 42,40 L52,49 Q77,25 98,15 Q115,32 118,57 L35,57 L35,157 L122,157 Q123,173 123,185 L16,185 L16,197 L240,197 L240,185 L136,185 Q136,173 136,157 L221,157 L221,45 L208,45 L208,57 L132,57 Q127,29 111,9 Q150,-5 248,-9 Q244,-17 242,-23 Q139,-18 101,0 Q83,-16 16,-31 M133,69 L208,69 L208,101 L135,101 Q135,95 134,85 Q134,74 133,69 M48,145 L48,113 L122,113 Q122,128 122,145 M120,69 Q121,74 121,85 Q122,95 122,101 L48,101 L48,69 M208,145 L136,145 Q135,128 135,113 L208,113"/> 
            <glyph glyph-name="最" unicode="&#x6700;" horiz-adv-x="249" d=" M11,-14 L9,-2 Q21,-1 34,0 L34,98 L7,98 L7,109 L249,109 L249,98 L120,98 L120,8 Q124,9 131,10 Q139,11 142,11 Q142,6 142,0 Q131,0 120,-1 L120,-29 L107,-29 L107,-2 Q62,-8 11,-14 M44,199 L213,199 L213,128 L44,128 M136,67 L136,78 L231,78 L231,67 Q218,32 197,10 Q217,-4 247,-14 Q243,-20 240,-26 Q208,-13 188,1 Q167,-14 137,-29 Q136,-27 134,-24 Q131,-20 130,-18 Q160,-5 179,9 Q157,31 147,67 M58,188 L58,169 L200,169 L200,188 M58,158 L58,139 L200,139 L200,158 M218,67 L159,67 Q168,37 188,18 Q205,35 218,67 M47,0 Q56,1 74,3 Q96,6 107,7 L107,29 L47,29 M47,98 L47,74 L107,74 L107,98 M47,63 L47,40 L107,40 L107,63"/> 
            <glyph glyph-name="月" unicode="&#x6708;" horiz-adv-x="213" d=" M175,-12 Q199,-13 198,9 L198,54 L62,54 Q57,9 25,-31 Q18,-25 12,-21 Q54,17 51,112 L51,199 L212,199 L212,8 Q213,-25 178,-25 Q164,-26 144,-26 Q144,-25 144,-24 Q142,-15 140,-11 Q146,-11 158,-12 Q170,-12 175,-12 M65,111 Q65,86 63,66 L198,66 L198,120 L65,120 M65,186 L65,133 L198,133 L198,186"/> 
            <glyph glyph-name="有" unicode="&#x6709;" horiz-adv-x="245" d=" M71,-29 L57,-29 L57,103 Q39,83 15,62 Q9,70 6,73 Q56,113 87,164 L15,164 L15,176 L94,176 Q103,192 111,210 L125,207 Q118,191 109,176 L245,176 L245,164 L102,164 Q92,146 79,130 L216,130 L216,3 Q217,-24 186,-24 Q173,-25 151,-25 Q151,-17 147,-11 Q161,-11 183,-11 Q203,-12 202,5 L202,27 L71,27 M71,73 L71,39 L202,39 L202,73 M71,118 L71,85 L202,85 L202,118"/> 
            <glyph glyph-name="本" unicode="&#x672C;" horiz-adv-x="249" d=" M18,14 Q16,18 8,26 Q76,73 109,153 L17,153 L17,165 L121,165 L121,210 L135,210 L135,165 L239,165 L239,153 L147,153 Q179,75 249,31 Q243,24 238,18 Q166,69 136,153 L135,153 L135,33 L192,33 L192,20 L135,20 L135,-29 L121,-29 L121,20 L62,20 L62,33 L121,33 L121,153 L120,153 Q91,66 18,14"/> 
            <glyph glyph-name="术" unicode="&#x672F;" horiz-adv-x="249" d=" M18,0 Q12,6 8,12 Q79,57 109,136 L12,136 L12,149 L121,149 L121,210 L135,210 L135,149 L245,149 L245,136 L147,136 Q177,62 249,16 Q247,14 242,8 Q239,5 238,4 Q164,54 136,136 L135,136 L135,-29 L121,-29 L121,136 L120,136 Q92,48 18,0 M164,192 L173,201 Q202,179 216,167 L206,156 Q188,174 164,192"/> 
            <glyph glyph-name="机" unicode="&#x673A;" horiz-adv-x="250" d=" M132,180 L132,109 Q132,51 123,25 Q115,-1 86,-28 Q82,-24 74,-18 Q103,8 111,31 Q119,54 119,110 L119,193 L203,193 L203,5 Q203,-8 213,-7 L218,-7 Q232,-7 233,7 Q236,23 237,47 Q244,44 250,42 Q249,15 246,3 Q242,-21 220,-20 L211,-20 Q189,-20 189,3 L189,180 M12,39 Q11,41 9,45 Q7,50 5,53 Q32,89 47,148 L11,148 L11,160 L47,160 L47,209 L60,209 L60,160 L95,160 L95,148 L60,148 L60,107 L67,115 Q89,95 100,84 L91,75 Q85,81 73,92 Q64,101 60,105 L60,-28 L47,-28 L47,122 Q33,67 12,39"/> 
            <glyph glyph-name="来" unicode="&#x6765;" horiz-adv-x="249" d=" M16,-12 Q15,-10 11,-6 Q8,-1 6,0 Q67,26 114,78 L10,78 L10,91 L121,91 L121,162 L25,162 L25,174 L121,174 L121,210 L135,210 L135,174 L233,174 L233,162 L135,162 L135,91 L246,91 L246,78 L142,78 Q185,28 249,4 Q245,-1 240,-8 Q170,21 135,70 L135,-30 L121,-30 L121,70 Q82,20 16,-12 M176,101 L166,111 Q176,121 193,141 Q198,146 200,149 L211,141 Q205,134 191,119 Q181,107 176,101 M47,142 L57,150 Q60,146 67,139 Q81,123 88,113 L77,104 Q62,125 47,142"/> 
            <glyph glyph-name="果" unicode="&#x679C;" horiz-adv-x="249" d=" M15,-21 Q12,-15 7,-8 Q69,14 106,53 L11,53 L11,65 L121,65 L121,95 L36,95 L36,196 L220,196 L220,95 L135,95 L135,65 L245,65 L245,53 L150,53 Q190,12 249,-2 Q246,-6 241,-16 Q173,5 136,53 L135,53 L135,-29 L121,-29 L121,53 L120,53 Q87,8 15,-21 M135,140 L135,107 L207,107 L207,140 M49,140 L49,107 L121,107 L121,140 M49,184 L49,151 L121,151 L121,184 M207,184 L135,184 L135,151 L207,151"/> 
            <glyph glyph-name="标" unicode="&#x6807;" horiz-adv-x="251" d=" M13,39 Q12,41 11,44 Q9,48 5,54 Q31,91 46,145 L10,145 L10,157 L46,157 L46,209 L59,209 L59,157 L91,157 L91,145 L59,145 L59,103 L66,109 Q73,102 86,89 Q93,82 97,78 L87,69 Q72,87 59,100 L59,-29 L46,-29 L46,115 Q36,78 13,39 M97,120 L247,120 L247,108 L178,108 L178,1 Q179,-25 150,-26 Q135,-26 122,-26 Q122,-20 120,-12 Q133,-12 147,-12 Q166,-13 165,4 L165,108 L97,108 M108,190 L235,190 L235,178 L108,178 M122,78 L135,73 Q109,21 95,-2 Q93,0 85,3 Q84,4 83,4 Q106,42 122,78 M202,72 L214,78 Q234,39 251,3 L237,-1 Q218,40 202,72"/> 
            <glyph glyph-name="槽" unicode="&#x69FD;" horiz-adv-x="248" d=" M92,153 L136,153 L136,176 L85,176 L85,187 L136,187 L136,209 L148,209 L148,187 L181,187 L181,209 L193,209 L193,187 L248,187 L248,176 L193,176 L193,153 L238,153 L238,75 L92,75 M99,56 L230,56 L230,-29 L217,-29 L217,-20 L112,-20 L112,-29 L99,-29 M41,208 L54,208 L54,159 L85,159 L85,147 L54,147 L54,104 L61,110 Q64,106 71,100 Q84,85 89,79 L79,71 Q77,74 71,81 Q60,95 54,101 L54,-28 L41,-28 L41,114 Q32,73 10,41 Q7,53 5,56 Q30,94 41,147 L10,147 L10,159 L41,159 M112,12 L112,-9 L217,-9 L217,12 M112,45 L112,23 L217,23 L217,45 M226,143 L193,143 L193,119 L226,119 M193,109 L193,86 L226,86 L226,109 M104,109 L104,86 L136,86 L136,109 M104,143 L104,119 L136,119 L136,143 M148,109 L148,86 L181,86 L181,109 M148,143 L148,119 L181,119 L181,143 M148,176 L148,153 L181,153 L181,176"/> 
            <glyph glyph-name="款" unicode="&#x6B3E;" horiz-adv-x="250" d=" M176,142 L189,142 Q189,121 189,105 Q202,18 250,-16 Q245,-21 240,-27 Q195,9 184,78 Q175,16 120,-30 Q116,-25 109,-19 Q172,32 175,98 Q176,113 176,142 M62,210 L76,210 L76,184 L130,184 L130,172 L76,172 L76,144 L118,144 L118,132 L16,132 L16,144 L62,144 L62,172 L8,172 L8,184 L62,184 M8,69 L130,69 L130,57 L76,57 L76,1 Q77,-24 52,-24 Q42,-24 30,-24 Q30,-18 28,-11 Q38,-11 48,-11 Q64,-12 63,1 L63,57 L8,57 M141,112 Q135,115 128,117 Q150,162 161,210 L174,208 Q172,203 169,192 Q165,178 163,171 L242,171 L242,157 L228,113 Q226,114 222,115 Q217,117 215,118 L230,159 L159,159 Q152,137 141,112 M21,106 L116,106 L116,95 L21,95 M17,-3 Q16,-2 12,0 Q9,1 7,2 Q22,23 33,45 L44,40 Q42,37 38,30 Q25,8 17,-3 M93,39 L102,45 Q114,29 124,11 L113,5 Q108,15 98,32 Q94,37 93,39"/> 
            <glyph glyph-name="正" unicode="&#x6B63;" horiz-adv-x="249" d=" M47,134 L61,134 L61,0 L133,0 L133,175 L18,175 L18,188 L240,188 L240,175 L147,175 L147,99 L231,99 L231,86 L147,86 L147,0 L249,0 L249,-13 L6,-13 L6,0 L47,0"/> 
            <glyph glyph-name="此" unicode="&#x6B64;" horiz-adv-x="249" d=" M29,162 L42,162 L42,4 Q63,7 81,12 L81,207 L95,207 L95,133 L140,133 L140,120 L95,120 L95,14 Q116,18 137,24 Q137,14 138,9 Q134,8 125,7 Q55,-6 10,-16 L7,-1 Q19,0 29,1 M154,210 L168,210 L168,119 Q207,143 233,166 L243,156 Q215,132 168,102 L168,13 Q167,-6 189,-5 L208,-5 Q228,-6 230,12 Q232,21 234,49 Q237,49 242,47 Q247,46 249,45 Q249,42 248,37 Q246,16 243,6 Q238,-18 210,-18 L186,-18 Q153,-20 154,12"/> 
            <glyph glyph-name="比" unicode="&#x6BD4;" horiz-adv-x="248" d=" M132,210 L146,210 L146,101 Q196,134 230,176 L242,167 Q198,118 146,84 L146,11 Q146,-9 169,-8 L204,-8 Q226,-9 230,10 Q230,13 231,20 Q232,24 234,45 Q237,44 243,43 Q246,41 248,41 Q247,20 242,3 Q236,-21 208,-22 L165,-22 Q131,-23 132,8 M39,203 L39,128 L110,128 L110,114 L39,114 L39,0 Q68,14 45,3 Q68,14 108,32 Q108,23 108,16 Q64,-1 45,-11 Q36,-15 29,-21 L18,-8 Q25,0 25,9 L25,203"/> 
            </font>
</defs>
</svg>
